<svg id="Group_410" data-name="Group 410" xmlns="http://www.w3.org/2000/svg" xmlns:xlink="http://www.w3.org/1999/xlink" width="67.479" height="96.543" viewBox="0 0 67.479 96.543">
  <defs>
    <clipPath id="clip-path">
      <rect id="Rectangle_389" data-name="Rectangle 389" width="67.479" height="96.543" fill="none"/>
    </clipPath>
  </defs>
  <g id="Group_409" data-name="Group 409" clip-path="url(#clip-path)">
    <path id="Path_656" data-name="Path 656" d="M38.316,98.4a5.751,5.751,0,0,1,.553,2.689c.237,2.4.664,4.784.75,7.215.067,1.907.917,3.732,1.067,5.666a44.912,44.912,0,0,1,.366,7.172c-.389-.02-.469-.22-.469-.446-.007-3.932-.827-7.768-1.288-11.646-.42-3.531-1.165-7.068-.952-10.668l-.027.019" transform="translate(-22.873 -58.746)" fill="#181818"/>
    <path id="Path_657" data-name="Path 657" d="M72.508,174.457a.853.853,0,0,1-.634-.935,1.177,1.177,0,0,1,1.3-.935.762.762,0,0,1,.627.823,1.227,1.227,0,0,1-1.294,1.047m.251-1.155a1.219,1.219,0,0,0-.147.224c-.012.03.044.089.07.135l.241-.145-.164-.214" transform="translate(-42.917 -103.049)" fill="#181818"/>
    <path id="Path_658" data-name="Path 658" d="M96.792,181.71a1.085,1.085,0,0,1-1.155.928c-.5.007-.825-.224-.814-.789.011-.583.243-.94.873-.922.531.015.966.174,1.1.783m-1.162-.143c-.24-.029-.4.051-.358.23.025.1.222.209.355.232.151.026.355-.075.325-.243-.017-.1-.236-.166-.322-.22" transform="translate(-56.621 -108.035)" fill="#181818"/>
    <path id="Path_659" data-name="Path 659" d="M79.388,184.722a.865.865,0,0,0-.9-.149.779.779,0,0,0-.454.927c0,.01-.008.017-.012.027a.654.654,0,0,0,.04.468c.225.455.624.377.994.244.407-.146.838-.3.906-.834a.773.773,0,0,0-.576-.683m-.786.824a.262.262,0,0,0-.019-.045.364.364,0,0,1,.149-.521.266.266,0,0,1,.157-.014,1.993,1.993,0,0,0,.064.288c.126.473-.155.411-.351.291" transform="translate(-46.573 -110.174)" fill="#181818"/>
    <path id="Path_660" data-name="Path 660" d="M51.55,181.253c.452-.014.806.178.828.62.028.578-.378.886-.914.975a.642.642,0,0,1-.79-.635c-.068-.625.345-.865.876-.959m-.034.889.122-.071c-.035-.032-.065-.084-.1-.092-.129-.025-.187.025-.141.115.015.029.081.033.124.048" transform="translate(-30.254 -108.23)" fill="#181818"/>
    <path id="Path_661" data-name="Path 661" d="M58.095,175.646a1.269,1.269,0,0,1-1.232.942.65.65,0,0,1-.628-.8.706.706,0,0,1,.968-.609c.343.084.8-.021.893.462m-1.006.142-.08-.054-.013.082Z" transform="translate(-33.57 -104.585)" fill="#181818"/>
    <path id="Path_662" data-name="Path 662" d="M68.343,179.8a.542.542,0,0,1,.684.543,1.034,1.034,0,0,1-.935,1.01.68.68,0,0,1-.848-.762c.017-.678.694-.586,1.1-.791" transform="translate(-40.152 -107.362)" fill="#181818"/>
    <path id="Path_663" data-name="Path 663" d="M34.722,183.7a1,1,0,0,1-1.006.854c-.572-.012-1.043-.355-.813-.9a1.918,1.918,0,0,1,1.178-.591.626.626,0,0,1,.641.639" transform="translate(-19.611 -109.312)" fill="#181818"/>
    <path id="Path_664" data-name="Path 664" d="M84.621,177.258c.4-.08.643.1.668.487a1.081,1.081,0,0,1-1.106.956.811.811,0,0,1-.814-.845c.041-.917.859-.34,1.253-.6m-.185.628c-.01-.035-.008-.087-.031-.1s-.1-.048-.134-.031c-.116.069-.1.142.037.176.037.009.085-.027.127-.043" transform="translate(-49.781 -105.834)" fill="#181818"/>
    <path id="Path_665" data-name="Path 665" d="M47.905,170.158c.4.052.787.256.709.71a1.144,1.144,0,0,1-1.129,1.023c-.393.012-.574-.279-.6-.653a.979.979,0,0,1,1.016-1.08m-.383.882c.017.039.039.113.05.112a2.772,2.772,0,0,0,.276-.069.78.78,0,0,0-.054-.13,2.64,2.64,0,0,0-.272.087" transform="translate(-27.997 -101.605)" fill="#181818"/>
    <path id="Path_666" data-name="Path 666" d="M81.951,172.727l.008-.008-.028-.015Z" transform="translate(-48.922 -103.126)" fill="#181818"/>
    <path id="Path_667" data-name="Path 667" d="M67.34,78.294a5.618,5.618,0,0,1,.027-.827,20.34,20.34,0,0,0-.814-5.952,4.8,4.8,0,0,0-.341-1.178,1.07,1.07,0,0,0-.444-.863c-1.017-.664-.973-1.579-.884-2.619.24-2.81.419-5.626.581-8.442.112-1.929.067-3.871.251-5.793.327-3.425.283-6.859.315-10.287a93.7,93.7,0,0,0-2.076-20.6c-.443-2.06-.616-4.21-2.076-5.984a15.2,15.2,0,0,0-3.817-3.883,108.639,108.639,0,0,0-9.875-5.451c-4.238-1.879-8.584-3.547-12.549-6A1.954,1.954,0,0,0,34.23.025a19.95,19.95,0,0,0-4.2.929,40.248,40.248,0,0,1-4.7,1.607,4.7,4.7,0,0,0-.759.218,8.583,8.583,0,0,0-1.885.776.241.241,0,0,0-.1.108l-.018.006a.187.187,0,0,0-.139.119,3.184,3.184,0,0,0-1.542.236c-3.519,1.465-7.008,3-10.543,4.428a38.14,38.14,0,0,1-4.693,2.071c-1.346.342-1.356.317-1.487,1.7-.052.551-.087,1.1-.114,1.658a97.233,97.233,0,0,0,.62,14.25c.11,1.115.061,2.62.965,3.443a6.381,6.381,0,0,0,1.625.95c1.028.481,2.1.849,3.117,1.361.461.232.913.485,1.366.732a7.285,7.285,0,0,0,.979.474c.647.237.818.895.931,1.524.121.676-.651.653-1.071.77a15.933,15.933,0,0,1-2.441.446c-1.263.149-2.532.243-3.8.353-2.575.222-3.119,1.512-3.211,3.422-.062,1.27-.053,2.547.01,3.818a1.068,1.068,0,0,1-.619,1.2A3.585,3.585,0,0,0,.549,49.69C.383,51.008.3,52.342.044,53.64a1.676,1.676,0,0,0,.786,1.838,6.492,6.492,0,0,0,6.33.227.589.589,0,0,0,.334-.678c-.453-1.757-.037-3.532-.124-5.3a4.434,4.434,0,0,0-.895-2.956,2.337,2.337,0,0,1-.659-2.092c.086-.656.058-1.327.091-1.991.07-1.389.242-1.614,1.554-1.935.373-.092.767-.1,1.147-.162,2.27-.384,4.646,0,6.838-.949A15.7,15.7,0,0,1,16.52,37c2.42,1.027,4.712,2.256,7.158,3.116a1.079,1.079,0,0,1,.722.816,11.7,11.7,0,0,1,.564,1.73,1.556,1.556,0,0,0,.822,1.342c1.365.647,1.648,1.73,1.512,3.123a14.45,14.45,0,0,0,.153,2.477,2.413,2.413,0,0,1-.716,1.955,38.193,38.193,0,0,1-2.96,3.135c-1.421,1.178-1.463,2.445-.811,3.987A6.156,6.156,0,0,0,24.5,60.814a2.515,2.515,0,0,0,3.334.366,9,9,0,0,0,3.1-2.673c.413-.653.884-1.274,1.362-1.884.713-.911,1.294-2.106,2.236-2.6.807-.427,2.042-.047,3.087-.025,1.674.035,2.32-.429,2.763-2.012a4.722,4.722,0,0,0,.192-1.639c-.072-.937-.116-1.877-.193-2.814a1.231,1.231,0,0,1,.795-1.431,2.907,2.907,0,0,0,1.9-3.171c-.091-.764.291-1.1.98-1.265q2.82-.682,5.628-1.415c.727-.191,1.036.108,1.086.79.068.937.077,1.881.193,2.812.423,3.4.716,6.81,1.073,10.215.318,3.034.307,6.076.424,9.111a35.315,35.315,0,0,1-.328,8.442c-.312,1.539-1.083,2.276-2.51,1.9-1.672-.437-3.406-.411-5.054-.906-3.544-1.064-7.207-1.725-10.641-3.161a.708.708,0,0,0-.895.141c.224.115.442.237.664.353.394.139.782.293,1.161.469,3.072,1.009,6.172,1.913,9.324,2.639a1.321,1.321,0,0,1,1.085.645c-1.613,1.426-3.225,2.908-4.726,4.512A60.529,60.529,0,0,0,35.79,83.14c.941.068,1.156-.52,1.538-.867,2.736-2.485,4.912-5.558,8.031-7.639.826-1.63,2.179-1.026,3.436-.8.434.077.859.2,1.29.293.311.065.726-.06.871.322.165.437-.229.7-.455.992a2.524,2.524,0,0,1-.358.344c-2.663,2.335-5.318,4.678-7.993,7a25.07,25.07,0,0,1-3.677,2.553,4.389,4.389,0,0,1-3,.687,23.306,23.306,0,0,1-4.54-.949c-2.337-.854-4.683-1.687-7-2.595C20.6,81.168,17.2,80.007,13.855,78.724,11.1,77.671,8.5,76.371,5.881,75.063a4.566,4.566,0,0,1-1.71-1.43c6.8-4.172,10.687-6.884,12.347-8.655a.252.252,0,0,0,.058-.034c.406-.33.882-.649,1.289-1.006a1.586,1.586,0,0,0,.158.168,3,3,0,0,0,1.124.494c.308.085.494-.339.162-.431-.079-.022-.16-.044-.24-.068a.185.185,0,0,0-.061-.2l-.616-.6a.238.238,0,0,0-.059-.038c0-.01,0-.016,0-.027a11.915,11.915,0,0,1-.083-1.244c.017-.3-.51-.324-.528-.027a5.03,5.03,0,0,0,.015.853.942.942,0,0,1-.023.418c-.412,0-.816.528-1.081.8a5.9,5.9,0,0,0-.735.674c-3.539,3.518-7.981,5.711-12.15,8.305-.366.228-.846.286-1.008.785-.273.84-.564,1.674-.848,2.511-.725,2.135-.038,4.285-.06,6.428a2.105,2.105,0,0,0,.017.348.214.214,0,0,0-.01.028c-.075.453.036,1.353.583,1.36.894.5,1.716.926,2.462,1.446a41.563,41.563,0,0,0,11.13,5.026c4.573,1.493,9.19,2.851,13.773,4.313a28.61,28.61,0,0,0,5,1.158,8.388,8.388,0,0,0,4.4-.365c3.216-1.343,6.5-2.523,9.694-3.916,2.632-1.149,5.191-2.472,7.746-3.788,2.262-1.165,4.492-2.4,6.7-3.655,2.467-1.4,4.741-2.965,4.007-6.4M24.808,3.454a.185.185,0,0,0,.127-.11,6.25,6.25,0,0,0,1.015-.286A51.009,51.009,0,0,1,31.5,1.43a8.062,8.062,0,0,1,6.312.934C41.989,4.874,46.707,6.3,51,8.616c1.464.79,2.781,1.823,4.291,2.512a13.644,13.644,0,0,1,6.59,6.448c-4.037.637-8.142.617-12.136,1.492a1.363,1.363,0,0,1-1.3-.494A65.261,65.261,0,0,0,40.816,12.7a5.33,5.33,0,0,1-1.937-2.2,3.451,3.451,0,0,0-4.322-2.132,2.2,2.2,0,0,1-1.565-.184A90.294,90.294,0,0,0,23.9,4.144c-.226-.081-.444-.149-.659-.207l1.566-.483M30.08,36.546c-.068,2.08-.451,2.333-2.4,1.732-4.333-1.334-8.528-3.04-12.765-4.637a19.126,19.126,0,0,1-5.68-2.99,3.91,3.91,0,0,1-1.4-2.328,31.458,31.458,0,0,1-.246-7.276c.043-2.433-.009-4.86-.119-7.288-.051-1.122.22-1.425,1.321-1.219a14.33,14.33,0,0,1,2.057.639c3.28,1.147,6.6,2.2,9.821,3.489A29.055,29.055,0,0,1,28,21.089a4.427,4.427,0,0,1,1.825,4.024c-.1,2.652.634,5.28.313,7.52-.023,1.589-.023,2.752-.062,3.913M28.624,20.494c-1.29-.852-2.57-1.721-3.825-2.624a21.907,21.907,0,0,0-7.514-3.226,38.37,38.37,0,0,1-7.75-2.8c.808-.712,1.96-.553,2.721-1.184a2.344,2.344,0,0,0,.783-.294,7.159,7.159,0,0,0,1.356-.485,49.519,49.519,0,0,1,9.041-2.669,8.042,8.042,0,0,1,4.538.455,52.919,52.919,0,0,1,14.29,8.258c.787.637,1.99,1.352,1.7,2.42-.225.836-1.562.821-2.452,1.079-2.71.788-5.512,1.156-8.244,1.838-.053.013-.124-.011-.164.016-1.743,1.172-3.109.127-4.482-.78m.73-13.183a.739.739,0,0,1,.5.266l-.5-.266M34.21,9.733c.23.017.464.025.6.263l-.6-.263m3.227.881c-.7-.4-1.377-.831-2.121-1.286,1.24-.262,1.773.022,2.6,1.348a1.375,1.375,0,0,1-.479-.062m1.3,1.783a.994.994,0,0,1-.884-.663,1.188,1.188,0,0,1,.884.663m-.963-.724-.6-.233a.817.817,0,0,1,.6.233m-1.388-.633q-.273-.137-.543-.275c.215.025.438.034.543.275m-.648-.327a1.951,1.951,0,0,1-.863-.662c.394.084.822.124.863.662m3.1,1.753.539.243a.984.984,0,0,1-.539-.243m-6.072,9.777c1.5-.366,2.992-.788,4.513-1.03A42.79,42.79,0,0,0,42.9,19.818a5.74,5.74,0,0,0,.782-.275c1.4-.655,1.53-1.143.628-2.4a12.506,12.506,0,0,0-3.385-3.129c-.519-.341-1.19-.575-1.427-1.255a19.18,19.18,0,0,1,3.835,2.506c1.472,1.07,2.863,2.25,4.289,3.383a.752.752,0,0,1,.333.56c-.025.292-.3.278-.488.319a113.819,113.819,0,0,0-12.4,3.518,11.633,11.633,0,0,1-2.091.461.722.722,0,0,1-.834-.641c-.073-.45.32-.549.624-.623M8.793,10.067c3.19-1.5,6.4-2.955,9.613-4.406.753-.34,1.548-.585,2.313-.9a1.651,1.651,0,0,1,.964-.149,18.159,18.159,0,0,1,6.785,2.318,1.4,1.4,0,0,1-.422-.064c-2.585-1.078-5.119-.36-7.615.3A54.178,54.178,0,0,0,13.681,9.4c-.193.079-.4.15-.583.243a.256.256,0,0,0-.071.018l-.847.4-.122.044A2.469,2.469,0,0,0,11,10.369a15.255,15.255,0,0,0-2.462.969,1.416,1.416,0,0,1-1.652-.227c.5-.686,1.274-.747,1.907-1.044M6.816,50.858c-.083.989-.189,1.976-.24,2.967-.065,1.25-.5,1.778-1.759,1.881A6.637,6.637,0,0,1,1.9,55.213,1.555,1.555,0,0,1,.8,53.541a25.2,25.2,0,0,1,.7-4.9c.046-.145.2-.253.427-.514a3.018,3.018,0,0,0,4.463.56,2.872,2.872,0,0,1,.428,2.174m-.944-3.252C5.2,48.912,4.489,49,3.281,47.962a2.908,2.908,0,0,0,2.591-.356m7.035-8.069a10.217,10.217,0,0,1-2.3.249,14.441,14.441,0,0,0-1.987.094c-2.911.325-3.327.773-3.5,3.709-.049.828-.107,1.657-.12,2.487a1.617,1.617,0,0,1-.39,1.06.353.353,0,0,1-.442.094c-.152-.068-.29-.159-.28-.358a44.016,44.016,0,0,1,.16-5.93c.272-1.493.64-1.875,2.147-2.02,1.375-.132,2.754-.245,4.133-.314a10.666,10.666,0,0,0,3.07-.646c.714-.255,1.381-.572,1.253-1.584.655,2.247.346,2.74-1.741,3.16m8.013-1.419c-2.09-.933-4.146-1.94-6.21-2.932q-1.893-.824-3.785-1.649l-.023-.006c-.369-.159-.7-.392-1.071-.562-.4-.186-.821-.345-1.215-.554-.882-.467-1.694-1.069-2.559-1.571a1.249,1.249,0,0,1-.67-1.2c-.165-3.812-.759-7.595-.76-11.422a54.211,54.211,0,0,1,.092-5.477,1,1,0,0,1,1.661-.772c.4.278.287.678.342,1.047A51.593,51.593,0,0,1,7,20.81c-.007,2.16-.071,4.32-.026,6.479.036,1.742.066,3.55,2.2,4.225a.474.474,0,0,1,.134.1,11.22,11.22,0,0,0,1.379.959q1.615.709,3.232,1.411c1.283.451,2.568.9,3.8,1.464a87.442,87.442,0,0,0,10.3,3.678c1.877.584,2.652.059,2.74-1.872a55.088,55.088,0,0,0-.219-10.286,13.789,13.789,0,0,1-.116-3.642c1,.028,1.24.684,1.3,1.441.108,1.434.093,2.881.272,4.3.5,3.952.537,7.937.926,11.9.06.6-.194.96-.859.884a5.649,5.649,0,0,1-.819-.118A69.311,69.311,0,0,1,20.92,38.118M28.983,59.19a2.564,2.564,0,0,1-4.459.478,5.926,5.926,0,0,1-.767-1.262c-.741-1.643-.454-2.028,1.553-1.9a6.663,6.663,0,0,1,3.122.933c.851.432.969.92.551,1.756m1.259-1.278c-1.663-1.632-3.758-2.051-6.045-2.3a24.091,24.091,0,0,1,2.682-3.156,38.887,38.887,0,0,0,2.675-3.174,6.473,6.473,0,0,1,1.279-1.291,1,1,0,0,1,1.2-.2,6.037,6.037,0,0,0,2.582.51c.952.023,1.17.305.993,1.224a5.631,5.631,0,0,1-.465,1.413,31.037,31.037,0,0,1-4.9,6.973M28.06,46.243c.024-.611.373-.728.894-.544.206.073.415.14.618.22,1.13.444,1.2.635.477,1.608-.448.6-.974,1.144-1.575,1.84a5.027,5.027,0,0,1-.413-3.125m4.06.624a4.776,4.776,0,0,1,3.1.3,2.951,2.951,0,0,1-3.1-.3m3.5,6.314c-.393-.12-.558-.327-.364-.726.218-.447.441-.893.661-1.34a3.366,3.366,0,0,0,.412-2.848c-.281-.738.133-1.092.888-1.224,2.425-.424,2.5-.371,2.622,2.443.006.221.022.443.018.664-.045,2.822-1.51,3.866-4.237,3.029m2.854-6.992A20.9,20.9,0,0,1,27.48,44.337a3.52,3.52,0,0,1-1.985-2.694c-.1-.6.133-.9.728-.632a59.546,59.546,0,0,0,5.7,1.734c2.389.793,4.786.555,7.2.39a1.589,1.589,0,0,0,1.017-.491,2.137,2.137,0,0,1,1.827-.454c.075,2.672-.8,3.82-3.5,4m4.135-4.9A30.846,30.846,0,0,1,35.919,42.4c-2.7-.094-2.006.541-2.427-2.658-.331-2.518-.324-5.078-.514-7.616-.136-1.82-.377-3.632-.518-5.452-.145-1.875.111-2.132,1.9-2.652,3.238-.939,6.422-2.056,9.694-2.894a55.138,55.138,0,0,1,12.575-2.047c1.2-.025,2.4-.388,3.6-.528,1.635-.19,2.006.024,2.518,1.605a40.208,40.208,0,0,1,1.622,8.794c.131,1.433.525,2.821.555,4.274a1.408,1.408,0,0,1-.924,1.536,54.281,54.281,0,0,1-8.564,3.125c-4.28,1.127-8.551,2.287-12.835,3.4M53.117,62.345c.13-3.765-.427-7.506-.6-11.262a26.6,26.6,0,0,0-.56-3.935c-.433-2.187-.072-4.426-.5-6.606-.15-.765.339-.974.9-1.117,1.34-.338,2.694-.628,4.027-.992,2.87-.786,5.66-1.82,8.607-2.846.226,3.244.374,6.386.284,9.538-.118,4.132-.175,8.268-.361,12.4-.156,3.474-.477,6.942-.68,10.414a1.7,1.7,0,0,1-.862,1.487c-3.452,2.111-7.009,3.959-11.241,4.547,1.62-3.829.843-7.763.977-11.625M23.621,83.3c-1.066-.006-1.334,1.376-2.489,1.274-.151-.51.416-.606.5-.92.121-.472-.279-.3-.494-.347-.053-.4-.1-.817-.677-.457-.506.313-.75.953-1.422,1.148-.107-.645.417-.822.728-1.159.261-.282.091-.493-.271-.538l0,0c-.236-.191-.427-.5-.817-.247-.317.207-.45.642-.89.711-.533-.45.362-.7.157-1.092-1.092.116-1.092.116-1.456-1.148A55.02,55.02,0,0,1,23.621,83.3m-2.532.035L20.212,84.4c0-.634.267-1.01.877-1.062m-2.23-.439a.742.742,0,0,1,.6-.564l-.6.564m-.431.408-.1.231c-.159-.181-.016-.2.1-.231M34.121,95.631a23.4,23.4,0,0,1-2.914-.658C24.8,93.231,18.516,91.1,12.236,88.965A16.474,16.474,0,0,1,7.375,86.5a32.34,32.34,0,0,0-4.012-2.315,1.673,1.673,0,0,0-.407-.176l-.346-.844a1.707,1.707,0,0,0-.081-.579,39.016,39.016,0,0,1-.347-3.966,6.331,6.331,0,0,1,.871-3.459c.359-.658.8-.851,1.46-.375a37.737,37.737,0,0,0,9.807,4.787,1.874,1.874,0,0,1,1.341,1.334,8.5,8.5,0,0,0,1.5,2.752,4.338,4.338,0,0,0,6.3.788A2.081,2.081,0,0,1,26.1,84c.443.219.948.31,1.4.518A25.756,25.756,0,0,0,35.294,86.7c1.156.137,1.218.2,1.249,1.248a22.611,22.611,0,0,0,.534,7.765,12.592,12.592,0,0,1-2.955-.081M66.366,81.139a11.357,11.357,0,0,1-2.773,2.6c-1.831,1.033-3.662,2.067-5.527,3.035-3.632,1.884-7.251,3.8-11.024,5.391-2.14.9-4.395,1.574-6.473,2.57a10.344,10.344,0,0,1-2.522.838,4,4,0,0,1-.459-.78,14.656,14.656,0,0,0-.508-1.876,23.718,23.718,0,0,1-.1-2.859c.053-.575.057-1.149.087-1.721a2.439,2.439,0,0,1,1.28-2.153c4.7-2.8,8.555-6.651,12.518-10.349A4.244,4.244,0,0,1,53.1,74.6a26.449,26.449,0,0,0,9.47-3.848c1.089-.675,2.009-1.019,3-.533a4.681,4.681,0,0,1,.554,1.906,5.255,5.255,0,0,0,.289,1.643,5.227,5.227,0,0,1,.239,1.8c-.01,1.495,0,2.99.012,4.485a1.481,1.481,0,0,1-.3,1.084" transform="translate(0 0)" fill="#181818"/>
    <path id="Path_668" data-name="Path 668" d="M38.359,98.38l-.024.009,0,.01Z" transform="translate(-22.888 -58.745)" fill="#181818"/>
    <path id="Path_669" data-name="Path 669" d="M72.816,192.168c0-.344.01-.73.5-.56a.721.721,0,0,1,.5.905,1.2,1.2,0,0,1-1.6.666.5.5,0,0,1-.253-.55c.1-.508.482-.514.882-.48-.027.183-.292.364-.007.545a.149.149,0,0,0,.145-.031c.149-.228.094-.4-.165-.494" transform="translate(-42.963 -114.389)" fill="#181818"/>
    <path id="Path_670" data-name="Path 670" d="M47.119,187.686a.912.912,0,0,1-.9.954.64.64,0,0,1-.738-.672,1.056,1.056,0,0,1,1.021-1.049c.493-.07.561.385.613.767m-.771.127.115-.078c-.03-.035-.055-.092-.09-.1-.122-.026-.178.028-.14.13.01.027.075.032.115.048" transform="translate(-27.16 -111.61)" fill="#181818"/>
    <path id="Path_671" data-name="Path 671" d="M61.917,169.248c.163-.206.3-.543.63-.313a.773.773,0,0,1,.3.882.7.7,0,0,1-.746.537c-.422-.03-.763-.238-.771-.7-.006-.374.326-.38.6-.406l-.018.005" transform="translate(-36.623 -100.829)" fill="#181818"/>
    <path id="Path_672" data-name="Path 672" d="M86.877,195.123A.776.776,0,0,1,86,195.9c-.305-.011-.548-.162-.536-.488a1.007,1.007,0,0,1,.744-1.07c.407-.059.589.4.669.784" transform="translate(-51.033 -116.042)" fill="#181818"/>
    <path id="Path_673" data-name="Path 673" d="M62.739,186.291a.378.378,0,0,0-.179-.075,1.008,1.008,0,0,0-1,.4.762.762,0,0,0,.028.847.517.517,0,0,0,.162.265.728.728,0,0,0,.9.045.927.927,0,0,0,.61-.728.905.905,0,0,0-.52-.757m-.735.881a.34.34,0,0,1,.028-.345.392.392,0,0,1,.272-.156c.083.079.167.158.167.233,0,.4-.257.286-.467.268" transform="translate(-36.69 -111.187)" fill="#181818"/>
    <path id="Path_674" data-name="Path 674" d="M58,191.847a.691.691,0,0,1,.642.766.638.638,0,0,1-.732.665.694.694,0,0,1-.659-.769c.013-.448.3-.65.749-.662" transform="translate(-34.187 -114.556)" fill="#181818"/>
    <path id="Path_675" data-name="Path 675" d="M40.853,178.986c-.3-.086-.5-.276-.364-.572.166-.35.22-.9.842-.748a.494.494,0,0,1,.4.595.775.775,0,0,1-.882.726" transform="translate(-24.15 -106.073)" fill="#181818"/>
    <path id="Path_676" data-name="Path 676" d="M91.19,189.655c-.264-.027-.593-.213-.462-.338.356-.338.447-.864.745-1.122.255-.221.757.163.713.615a.925.925,0,0,1-1,.845" transform="translate(-54.158 -112.337)" fill="#181818"/>
    <path id="Path_677" data-name="Path 677" d="M81.509,200.512c-.1.413-.337.7-.769.629s-.346-.457-.329-.762c.02-.354.162-.645.576-.562a.636.636,0,0,1,.523.695" transform="translate(-48.004 -119.307)" fill="#181818"/>
    <path id="Path_678" data-name="Path 678" d="M68.481,198.541c-.192-.306-.253-.615.066-.868.2-.16.421-.406.713-.2a.574.574,0,0,1,.115.859.89.89,0,0,1-.681.391q-.105-.092-.213-.183" transform="translate(-40.797 -117.869)" fill="#181818"/>
    <path id="Path_679" data-name="Path 679" d="M50.453,176.546l-.069.079a.261.261,0,0,0-.278.034,1.691,1.691,0,0,1-.9.494l-.385.039.008-.02a67,67,0,0,1-7.249-2.019c-.07-.062-.141-.123-.213-.183-7.05-1.5-15.356-4.62-17.189-6.494.265-.2.523-.4.784-.6,2.693-2.022,5.545-3.859,7.643-6.572.3-.393.6-.79.912-1.18.227-.286.484-.434.849-.2a2.845,2.845,0,0,1,1.035.722c-.258.454-1.2.773-.6,1.552a.868.868,0,0,0,1.014.38c.8-.294.642-1.027.581-1.655a5.711,5.711,0,0,1,.957.124c.261.064.514.183.779.255q.964.266,1.92.56c1.275.391,2.539.816,3.793,1.267.421.151.84.307,1.259.464a.285.285,0,0,1,.117.015,2.19,2.19,0,0,1,.22.1,2.811,2.811,0,0,1,.645.189,2.609,2.609,0,0,1,.707.15,15.284,15.284,0,0,1,1.653.618.225.225,0,0,0-.029-.45c-.058-.005-.115-.015-.172-.024a.312.312,0,0,0-.027-.087.238.238,0,0,0-.187-.145.3.3,0,0,0-.079-.046,35.6,35.6,0,0,0-5.454-1.8.291.291,0,0,0-.083,0c-.665-.246-1.321-.506-2.009-.694a6.39,6.39,0,0,1-1.12-.367,3.986,3.986,0,0,0-.952-.361,10.031,10.031,0,0,1-1.637-.541,23.934,23.934,0,0,1-3.07-1.556c-.471-.274-1.153-1.172-1.631-.315-.316.567.925.336,1.1.962a4.372,4.372,0,0,1-1.083,1.787,32.037,32.037,0,0,1-6.743,5.845c-.678.475-1.4.888-2.062,1.388-.342.259-.469.62.074.892a58.165,58.165,0,0,0,7.987,3.582c4.418,1.429,8.864,2.774,13.295,4.163a18.1,18.1,0,0,0,2.319.606.25.25,0,0,0,.027.012,7.321,7.321,0,0,0,1.945.391,1.2,1.2,0,0,0,.668-.013,3.455,3.455,0,0,0,1.377-1.1c.209-.245-.258-.47-.445-.252M35.607,161.677c0,.122-.08.2-.175.148-.064-.037-.089-.157-.112-.245-.005-.021.1-.094.1-.088a1.987,1.987,0,0,1,.184.185" transform="translate(-13.68 -94.298)" fill="#181818"/>
    <path id="Path_680" data-name="Path 680" d="M35.63,53.647a2.389,2.389,0,0,0,1.238,2.066c.854.432,1.516.678,2.2-.384.432,1.022-.578,1.736.062,2.677.719,1.057,1.536.39,2.249.44.058.158.1.233.088.243a6.361,6.361,0,0,0-1.853,3.517,3.393,3.393,0,0,1-3.557,2.187c-3.09-.405-5.655-3.1-4.47-6.7.222-.673.631-1.28.129-2.031-.186-.279.006-.684.482-.566,1.745.432,2.26.257,3.428-1.451M34.3,62.813c.321-2.354.216-4.7.8-6.985a2.984,2.984,0,0,0-2.972,2.661A3.793,3.793,0,0,0,34.3,62.813m3.057-5.939a19.835,19.835,0,0,0-.91,5.652c.029,1.094.343,1.241,1.327.73a3.187,3.187,0,0,0,1.14-4.279c-.392-.649-.9-1.227-1.558-2.1m-1.935,6.244c.222-.83.243-1.709.443-2.567.274-1.178.452-2.379.665-3.571.052-.29.018-.585-.328-.641-.229-.038-.4.153-.482.367a1.95,1.95,0,0,0-.207.623c-.054,1.917-.521,3.822-.091,5.789" transform="translate(-18.687 -32.034)" fill="#181818"/>
    <path id="Path_681" data-name="Path 681" d="M67.309,60.157c.828.036,1.618.748,1.557,1.4a1.777,1.777,0,0,1-1.648,1.573,1.446,1.446,0,0,1-1.4-1.523,1.53,1.53,0,0,1,1.49-1.45m.033,2.135c.351-.06.642-.221.641-.6a.648.648,0,0,0-.692-.711c-.349,0-.633.16-.626.564a.719.719,0,0,0,.677.747" transform="translate(-39.302 -35.921)" fill="#181818"/>
    <path id="Path_682" data-name="Path 682" d="M69.856,28.136c.079,2.985-2.145,4.107-4.86,2.6a9.144,9.144,0,0,1-1.564-1.21c-1.65-1.461-1.732-2.128-.457-3.922a3.934,3.934,0,0,1,4.094-1.9c1.793.326,2.557,1.213,2.683,2.475a19.245,19.245,0,0,1,.1,1.956m-5.645-2.818-.315.362a.868.868,0,0,0-.309.681.822.822,0,0,0-.5,1.211,1.918,1.918,0,0,0,.476-1.234.8.8,0,0,0,.311-.682.357.357,0,0,0,.317-.346Zm3.125,3.762c-.083-.672-.156-1.276-.231-1.879a.676.676,0,0,0-.456-.628c-.308-.1-.521.088-.7.31-.749.911-.527,1.977-.457,3.011.008.117.209.25.348.326.842.456,1.484-.066,1.5-1.14m.691,1.249c1.037-.564,1.072-.56,1.125-1.141.049-.543,0-1.1.015-1.643s-.245-.785-.8-.746c-.527.037-.633.373-.6.79.068.87.165,1.737.263,2.739m-3.262-.8c-.169-1.476.6-2.5.691-3.753-1.929,1.079-2.261,2.406-.691,3.753m4.148-3.758a3.171,3.171,0,0,0-3.073-1.19c.705,1.209,1.334,1.464,3.073,1.19" transform="translate(-37.08 -14.112)" fill="#181818"/>
  </g>
</svg>
