<svg xmlns="http://www.w3.org/2000/svg" xmlns:xlink="http://www.w3.org/1999/xlink" width="108.807" height="60.597" viewBox="0 0 108.807 60.597">
  <defs>
    <clipPath id="clip-path">
      <rect id="Rectangle_407" data-name="Rectangle 407" width="108.807" height="60.597" transform="translate(0 0)" fill="none"/>
    </clipPath>
  </defs>
  <g id="Group_464" data-name="Group 464" transform="translate(0 0)">
    <g id="Group_463" data-name="Group 463" clip-path="url(#clip-path)">
      <path id="Path_1046" data-name="Path 1046" d="M44.978,3.821c-1.143-.489-2.3-.941-3.426-1.474C38.5.9,35.339.186,32.745,2.883,30.628,5.086,28.71,4,26.8,3.106c-3.027-1.425-5.42-1.247-7.232,1.426-1.042,1.536-1.973,1.384-3.326.914C13.823,4.605,11.538,4.5,9.48,6.5a3.736,3.736,0,0,1-3.459.88C3.43,6.49,2.37,8.435,1.137,9.746c-1.418,1.508.1,3.282.705,4.466q2.693,5.293,5.1,10.711c3.509,7.942,7.766,15.5,11.658,23.249,1.27,2.526,2.315,5.093,4.382,7.077a2.128,2.128,0,0,0,2.65.64" fill="none" stroke="#181818" stroke-linecap="round" stroke-linejoin="round" stroke-width="1.1"/>
      <path id="Path_1047" data-name="Path 1047" d="M107.641,12.039c-1.758,4.933-5.059,8.971-7.688,13.4-3.989,6.728-7.663,13.642-11.542,20.436-.913,1.6-1.354,3.642-3.605,4.2-.795.2.042,1.109-.51,1.887-2.687,3.789-6.544,5.055-10.77,5.678-5.2.766-10.394,1.6-15.621,2.068a82.428,82.428,0,0,1-17.933-.349c-2.934-.376-5.871-.729-8.8-1.137-2.815-.391-4.856-1.076-6.147-4.444C20.7,42.5,17.58,30.768,12.52,19.757c-.133-.289.008-.7.021-1.062" fill="none" stroke="#181818" stroke-linecap="round" stroke-linejoin="round" stroke-width="1.1"/>
      <path id="Path_1048" data-name="Path 1048" d="M38.571,19.126l.568,9.659a47.43,47.43,0,0,0,.99,9.642c1.052,4.751,1.077,9.685,1.123,14.518a38.991,38.991,0,0,1,.116,4.917C39.617,51.6,40.152,44.969,39.532,38.5c-.466-6.464-2.469-12.883-1.07-19.385a.055.055,0,0,1,.109.007" fill="#181818"/>
      <path id="Path_1049" data-name="Path 1049" d="M48.223,18.947A80.52,80.52,0,0,1,48.058,32.2c.082,7.352,1,14.936-.674,22.134-.572-7.344.182-14.76.318-22.135a50.962,50.962,0,0,1,.411-13.256.056.056,0,0,1,.11.006" fill="#181818"/>
      <path id="Path_1050" data-name="Path 1050" d="M1.541,11.857c3.574-.046,7.149-.075,10.723-.151a2.094,2.094,0,0,1,2.066.917c.363.723-.236,1.318-.816,1.833-.9.8-1.72,1.674-2.576,2.519a1.989,1.989,0,0,0,2.7,1.259,73.08,73.08,0,0,0,9.489-2.572c2.427-.929,3.008,0,3.453,2.464.6,3.318.41,6.665.893,9.964,1.147,7.847,3.282,15.528,3.964,23.457A27.393,27.393,0,0,0,32.1,54.79" fill="none" stroke="#181818" stroke-linecap="round" stroke-linejoin="round" stroke-width="1.1"/>
      <path id="Path_1051" data-name="Path 1051" d="M79.964,22.816a60.414,60.414,0,0,1-3.337,12.14c-1.738,6.772-2.784,13.891-5.705,20.246.758-6.984,3.415-13.615,5.362-20.341a52.661,52.661,0,0,1,3.575-12.076.056.056,0,0,1,.1.031" fill="#181818"/>
      <path id="Path_1052" data-name="Path 1052" d="M79.941,14.763c-.383-2.463-.365-5.385,1.6-7.2-.581,2.517-.462,4.839-1.6,7.2" fill="#181818"/>
      <path id="Path_1053" data-name="Path 1053" d="M90.13,23.2c-1.179,5.55-4.325,10.279-6.02,15.626a92.133,92.133,0,0,1-5.488,13.583c-.349.441-.433,1.7-.7,1.984-.251-1.237.434-2.974.82-4.19a95.373,95.373,0,0,1,4.808-11.6c2.48-5.031,3.485-10.622,6.477-15.442a.056.056,0,0,1,.1.041" fill="#181818"/>
      <path id="Path_1054" data-name="Path 1054" d="M62.4,19.734a29.493,29.493,0,0,1-.483,13.589c-.618,2.958-.3,6.046-.688,9.038-.206,2.626-.718,6.349-1.1,8.988l-.327,2.24a5.39,5.39,0,0,0-.077,2.211.056.056,0,0,1-.108.022,4.761,4.761,0,0,1-.37-2.269c-.091-5.311.84-10.57,1.648-15.79a62.2,62.2,0,0,0,1.009-9c.156-2.989.195-5.981.389-9.022a.056.056,0,0,1,.11-.007" fill="#181818"/>
      <path id="Path_1055" data-name="Path 1055" d="M53.569,25.039c.6,1.142.267,2.492.392,3.733.065,3.761,0,7.523-.131,11.281-.146,3.758-.352,7.514-.692,11.261-.044,1.233-.515,2.5-.145,3.714-.606-1.142-.268-2.493-.394-3.733-.064-3.762,0-7.523.133-11.281.148-3.758.354-7.514.693-11.261.044-1.233.515-2.5.144-3.714" fill="#181818"/>
      <path id="Path_1056" data-name="Path 1056" d="M68.9,23.464c-.123,4.777-.578,9.52-1.114,14.252a59.383,59.383,0,0,1-2.881,14c1.564-9.412,1.967-18.906,4-28.254" fill="#181818"/>
      <path id="Path_1057" data-name="Path 1057" d="M100.208,17.39a34.066,34.066,0,0,0-3.453-.9,3.559,3.559,0,0,0-3.527.9,17.223,17.223,0,0,1-2.216,2.061c-1.741,1.358-3.322,1.736-5.407.153-2.7-2.052-4.577-1.711-7.467.453-3.194,2.391-6.008,2.287-9.366-.347a6.233,6.233,0,0,0-7.5-.01c-3.924,2.873-5.846,2.745-9.088-.6-1.029-1.064-5.449-1.46-7.184-.212-2.655,1.907-4.661,1.226-6.725-.824-1.317-1.308-2.6-.609-3.746.386a8.136,8.136,0,0,1-7.041,1.878" fill="none" stroke="#181818" stroke-linecap="round" stroke-linejoin="round" stroke-width="1.1"/>
      <path id="Path_1058" data-name="Path 1058" d="M68.094,5.427c.183,2.524.689,4.856-.4,7.275a12.363,12.363,0,0,1-.38-3.651c.006-1.222-.047-2.621.782-3.624" fill="#181818"/>
      <path id="Path_1059" data-name="Path 1059" d="M45.523,10.808c.372-2.344-.4-4.643-.02-6.695.5-.295.707-.925,1.137-1.282,2.624-2.17,5.3-3.556,8.339-.547.717.708,1.53.178,2.436-.348a6.26,6.26,0,0,1,7.4.785,22.738,22.738,0,0,0,3.194,2.027l.346.143c.723-1.139,2.186-1.479,4.524-1.879a6.693,6.693,0,0,1,4.771,1.217Q79.618,5.5,81.577,6.786l.3.273a6.955,6.955,0,0,1,1.6-1.574c3.117-2.24,7.916-2,10.413.976a6.929,6.929,0,0,0,6.627,2.295,40.583,40.583,0,0,1,5.916-.25c.977.019,1.876.088,1.823,1.412-.036.9.056,1.65-1.4,1.652a2.961,2.961,0,0,0-2.55,1.927,10.3,10.3,0,0,1-2.649,2.951c-1.929,1.8-2.741,4.489-3.991,6.787-4.273,7.855-8.157,15.92-12.26,23.869a6.241,6.241,0,0,0-.6,2.673" fill="none" stroke="#181818" stroke-linecap="round" stroke-linejoin="round" stroke-width="1.1"/>
      <path id="Path_1060" data-name="Path 1060" d="M33.74,3.4a3.257,3.257,0,0,1,1.052,2.481c-.079,1.866.546,3.34.462,5.121a17.3,17.3,0,0,1-.285,2.626c-.57-1.657-.586-3.387-1.059-5.036-.451-1.885.557-3.406-.17-5.192" fill="#181818"/>
      <path id="Path_1061" data-name="Path 1061" d="M26.5,3.4c-.4.861.049,1.478.475,2.225,1.383,2.44.081,5.134.5,7.725-1.62-2.14-.438-5.028-1.278-7.379-.32-.756-.534-2.046.307-2.571" fill="#181818"/>
      <path id="Path_1062" data-name="Path 1062" d="M94.926,8.084A13.721,13.721,0,0,1,91.715,15.2a13.713,13.713,0,0,1,3.211-7.116" fill="#181818"/>
      <path id="Path_1063" data-name="Path 1063" d="M56,2.89c.684,2.14.48,3.967.575,6.184C55.018,7.408,55.153,4.866,56,2.89" fill="#181818"/>
      <path id="Path_1064" data-name="Path 1064" d="M19.171,6.08c1.537.69,1,2.565,1.734,3.816-1.886-.154-1.619-2.441-1.734-3.816" fill="#181818"/>
    </g>
  </g>
</svg>
