<svg id="Group_432" data-name="Group 432" xmlns="http://www.w3.org/2000/svg" xmlns:xlink="http://www.w3.org/1999/xlink" width="92.689" height="57.244" viewBox="0 0 92.689 57.244">
  <defs>
    <clipPath id="clip-path">
      <rect id="Rectangle_397" data-name="Rectangle 397" width="92.689" height="57.244" fill="none"/>
    </clipPath>
  </defs>
  <g id="Group_423" data-name="Group 423" clip-path="url(#clip-path)">
    <path id="Path_735" data-name="Path 735" d="M94.067,37.356a.559.559,0,0,1-.132-.282c.046.1.091.191.132.282" transform="translate(-51.186 -20.202)" fill="#1a1818"/>
    <path id="Path_736" data-name="Path 736" d="M28.949,59.282c-.744,2.365-1.243,4.825-2.654,6.92a21.719,21.719,0,0,1,2.654-6.92" transform="translate(-14.328 -32.303)" fill="#1a1818"/>
    <path id="Path_737" data-name="Path 737" d="M94.326,108.09c-1.718,1.195-3.786,1.543-6.907,1.479a7.511,7.511,0,0,1,3.411-.936c1.163-.195,2.33-.363,3.5-.543" transform="translate(-47.635 -58.899)" fill="#1a1818"/>
    <path id="Path_738" data-name="Path 738" d="M25.068,52.166c.359-2.483,1.528-4.691,2.382-7,.112-.3.322-.639.744-.471a.433.433,0,0,1,.229.631c-1.59,2.042-1.641,4.852-3.408,6.8l.052.044" transform="translate(-13.631 -24.328)" fill="#1a1818"/>
    <path id="Path_739" data-name="Path 739" d="M101.564,98.747a17.7,17.7,0,0,1-6.456,2,18.227,18.227,0,0,1,6.456-2" transform="translate(-51.825 -53.808)" fill="#1a1818"/>
    <path id="Path_740" data-name="Path 740" d="M70.72,37.9c1.989-.493,4.092-.149,5.709-1.535.335-.287.673-.018.818.308a.575.575,0,0,1-.384.819c-1.339.285-2.687.548-4.045.722a2.759,2.759,0,0,1-2.1-.314" transform="translate(-38.536 -19.749)" fill="#1a1818"/>
    <path id="Path_741" data-name="Path 741" d="M98.845,82.312a4.914,4.914,0,0,1-4.264.932,8.572,8.572,0,0,1,4.264-.932" transform="translate(-51.538 -44.841)" fill="#1a1818"/>
    <path id="Path_742" data-name="Path 742" d="M19.06,67.793c.689-2.316,1.239-4.687,2.731-6.674l-.053-.044c-.576,2.358-1.079,4.747-2.736,6.663l.058.056" transform="translate(-10.354 -33.279)" fill="#1a1818"/>
    <path id="Path_743" data-name="Path 743" d="M92.694,66.6c-1.529,1.595-2.17,1.815-4.177,1.53l4.177-1.53" transform="translate(-48.233 -36.293)" fill="#1a1818"/>
    <path id="Path_744" data-name="Path 744" d="M78.207,44.469c1.287-.335,2.579-.657,3.86-1.013.414-.115.675-.064.715.4a.51.51,0,0,1-.4.581c-1.372.14-2.734.605-4.173.033" transform="translate(-42.615 -23.651)" fill="#1a1818"/>
    <path id="Path_745" data-name="Path 745" d="M96.991,89.326l4.537-1.261c-1.36,1.172-2.856,1.857-4.537,1.261" transform="translate(-52.851 -47.987)" fill="#1a1818"/>
    <path id="Path_746" data-name="Path 746" d="M93.585,75.353c.983-.417,1.958-.855,2.957-1.228a.674.674,0,0,1,.6.287.7.7,0,0,1-.241.64,4.175,4.175,0,0,1-3.321.3" transform="translate(-50.995 -40.385)" fill="#1a1818"/>
    <path id="Path_747" data-name="Path 747" d="M90.123,60.532a3.966,3.966,0,0,1-3.382.8,4.2,4.2,0,0,1,3.382-.8" transform="translate(-47.265 -32.949)" fill="#1a1818"/>
    <path id="Path_748" data-name="Path 748" d="M86.806,53.153a4.854,4.854,0,0,1-3.552.73,4.11,4.11,0,0,1,3.552-.73" transform="translate(-45.365 -28.896)" fill="#1a1818"/>
    <path id="Path_749" data-name="Path 749" d="M15.846,80.028a9.475,9.475,0,0,1,1.473-4.254l-.062-.059A5.185,5.185,0,0,1,15.8,79.989Z" transform="translate(-8.609 -41.257)" fill="#1a1818"/>
    <path id="Path_750" data-name="Path 750" d="M14.6,85.106c.239,1.26-.552,2.218-.953,3.289a3.741,3.741,0,0,1,1-3.249l-.048-.04" transform="translate(-7.409 -46.375)" fill="#1a1818"/>
    <path id="Path_751" data-name="Path 751" d="M53.608,46.2a22.012,22.012,0,0,0-2.03-6.672c-.892-1.884-1.9-3.7-2.822-5.552Q47.3,31.02,45.917,28.037c-.142-.3-.278-.587-.41-.878Q44.5,25,43.5,22.844c-.2-.446-.414-.9-.623-1.343a.562.562,0,0,1-.132-.282c-.1-.214-.2-.432-.3-.651q-.382-.826-.769-1.652a12.388,12.388,0,0,1-1.138-4.369c0-.054-.009-.6-.014-.914.027-.086.06-.173.091-.259h0c.1-.282.218-.565.337-.846l.014-.05.687-1.9.168-.492.1-.278A17.034,17.034,0,0,0,35,8.136a138.362,138.362,0,0,0-18.062.318,17.647,17.647,0,0,0-7.368,2.253l.027.064.246.583.405.96.091.218c.109.242.237.61.364.974s.246.719.35.956c.332,1.014.642,2.038.915,3.076,3.427.887,6.754,2.116,10.331,2.457a34.332,34.332,0,0,0,12.643-.7,17.628,17.628,0,0,0,3.763-.988c.956-.509,1.515-.2,2.034.8.428.819.81,1.661,1.17,2.508.237.546.46,1.092.683,1.638.387.928.765,1.852,1.179,2.762.273.6.546,1.2.823,1.8.132.283.259.565.391.846,1.265,2.731,2.576,5.438,4.009,8.087a25.386,25.386,0,0,1,3.336,9.771,9.254,9.254,0,0,1-4.287,8.911,19.638,19.638,0,0,1-8.238,2.908c-4.46.605-8.947,1.029-13.393,1.734a31.758,31.758,0,0,1-14.14-.919,20.72,20.72,0,0,1-10.522-7.7,3.249,3.249,0,0,1-.477-3.2c1.3-3.859,2.311-7.791,3.75-11.623,1.939-5.174,4.428-10.144,5.934-15.487.328-1.165.614-2.343.924-3.513-.405.132-.787.21-.933.751a28.024,28.024,0,0,1-.978,2.954Q7.523,27.618,4.894,33.839C3.16,37.976,2.077,42.377.516,46.6a5.941,5.941,0,0,0,1.42,6.881c.555.551,1.079,1.133,1.606,1.707,4.587,5,10.713,6.394,17.007,6.408,6.922.018,13.8-1.17,20.656-2.217a15.347,15.347,0,0,0,10-5.479,10.341,10.341,0,0,0,2.4-7.7M11.9,13.583c-.259-.6-.505-1.206-.737-1.844a.907.907,0,0,0,.155.06,6.408,6.408,0,0,0,.874.291,52.956,52.956,0,0,0,5.448.928c.537.041,1.069.055,1.6.055.71-.119,1.429-.223,2.134-.346.806-.136,1.611-.264,2.417-.377-2.294.009-4.592-.073-6.89-.218a15.337,15.337,0,0,1-5.944-1.3,19.4,19.4,0,0,1,7.723-1.875c1.015-.1,2.039-.118,3.063-.173,4.282-.3,8.578-.114,12.861-.036a13.937,13.937,0,0,1,5.816,1.279,20.832,20.832,0,0,1-4.241,1.22c-1.529.291-3.058.514-4.587.683a33.472,33.472,0,0,1,3.423.323c.086-.014.177-.027.264-.036a21.385,21.385,0,0,0,5.256-1.42c-.368.97-.737,1.934-1.1,2.9h0c-7.277,1.456-14.545,2.2-22.095.9-1.793-.3-3.582-.819-5.438-1.014m25.845,3.809a30.636,30.636,0,0,1-6.795,1.721,38.745,38.745,0,0,1-15.191-1.406c-1.693-.551-3.34-.961-3.39-3.017,3.031.373,6.062.774,9.1,1.133a20.775,20.775,0,0,0,4.246.36c4.606-.415,9.193-.942,13.767-1.529.005.073.005.141.009.214a2.291,2.291,0,0,1-1.743,2.525" transform="translate(0 -4.347)" fill="#1a1818"/>
    <path id="Path_752" data-name="Path 752" d="M141.678.33a10.723,10.723,0,0,0-5.652.137q-4.444.983-8.783,2.389A29.376,29.376,0,0,0,121.817,5.3,190.593,190.593,0,0,1,99.454,16.235a19.426,19.426,0,0,1-2.121.728c-.278.077-.564.146-.846.2-1.292.278-1.984.337-2.262-.014.209.446.419.9.623,1.343a10.547,10.547,0,0,1,2.344-.405c.1,0,.2-.014.3-.023,1.106-.086,1.261.669,1.552,1.37.314.746.514,1.5-.35,2.052-.628.41-1.233.865-1.843,1.32.132.291.268.583.41.878a17.826,17.826,0,0,0,2.116-1.757,5.871,5.871,0,0,1,2.762-1.343c3.013-.8,6-1.675,8.988-2.553q6.239-1.823,12.561-3.318c5.743-1.356,11.373-3.086,16.429-6.289a7.866,7.866,0,0,0,3.664-4.223c.674-2.112.009-3.218-2.1-3.877M100.442,19.958c-.751-3.177-.683-3.258,3.832-4.606.669,3.108.25,4.05-3.832,4.606m42.133-15.81a5.3,5.3,0,0,1-2.426,2.944c-1.311.787-2.685,1.47-4.037,2.2a.375.375,0,0,1-.059.032l.059-.023a22.264,22.264,0,0,1-8.538,3.035c-.828.947-1.948.91-3.067.9l0,0s0-.009.009-.009l0,0c-2.863.783-5.711,1.616-8.583,2.344-1.643.419-.942-1.206-1.383-1.839-1.029.742.014,3.418-2.535,2.594a4.123,4.123,0,0,1-.592.35c-2.521,1.083-2.544,1.069-3.131-1.652-.856.573-.441,1.434-.664,2.062a1.173,1.173,0,0,1-1.183.851c-.737-.05-.633-.669-.655-1.179a2.249,2.249,0,0,1,1.265-2.535c6.076-3.145,12.019-6.572,18.167-9.571a42.692,42.692,0,0,1,12.711-3.491,7.552,7.552,0,0,1,3.09.269c1.9.523,2.134.915,1.552,2.726" transform="translate(-51.344 0)" fill="#1a1818"/>
    <path id="Path_753" data-name="Path 753" d="M182.754,15.178c-1.049-1.269-.144-2.393.2-3.557.752,1.268.3,2.431-.256,3.586l.059-.028" transform="translate(-99.315 -6.332)" fill="#1a1818"/>
    <path id="Path_754" data-name="Path 754" d="M170.9,17.247a1.811,1.811,0,0,1-.137,2.432c-.667-.922-.215-1.708.137-2.432" transform="translate(-92.863 -9.398)" fill="#1a1818"/>
    <path id="Path_755" data-name="Path 755" d="M164.295,22.444c-.594-1.051-.154-2.029.2-3.011a2.462,2.462,0,0,1-.273,3.046l.073-.035" transform="translate(-89.366 -10.589)" fill="#1a1818"/>
    <path id="Path_756" data-name="Path 756" d="M157.6,25.043c.141-.815-.845-1.789.36-2.5.805,1-.052,1.723-.377,2.522,0,0,.017-.025.017-.025" transform="translate(-85.739 -12.285)" fill="#1a1818"/>
    <path id="Path_757" data-name="Path 757" d="M177.325,17c-.117.253-.36.5-.578.336-.559-.424-.306-1.057-.248-1.614.01-.1.29-.273.374-.238.755.311.477.956.452,1.516" transform="translate(-96.117 -8.437)" fill="#1a1818"/>
    <path id="Path_758" data-name="Path 758" d="M189.469,10.8a2.028,2.028,0,0,1,.335-1.927c.146.051.356.06.4.147a1.16,1.16,0,0,1-.731,1.78" transform="translate(-103.172 -4.833)" fill="#1a1818"/>
    <path id="Path_759" data-name="Path 759" d="M150.353,24.805a1.355,1.355,0,0,1,.1.321,1.719,1.719,0,0,1-.495,1.348c-.06.047-.346-.049-.391-.143a1.079,1.079,0,0,1,.363-1.316,2.45,2.45,0,0,1,.427-.21" transform="translate(-81.441 -13.516)" fill="#1a1818"/>
    <path id="Path_760" data-name="Path 760" d="M143.723,28.472c-.125.066-.283.216-.37.183-.387-.147-.379-.5-.3-.82.055-.223.189-.5.485-.249a.72.72,0,0,1,.184.886" transform="translate(-77.926 -14.977)" fill="#1a1818"/>
    <path id="Path_761" data-name="Path 761" d="M129.381,33.01c-1.214-.016-1.112-.651-.714-1.468.717.332.463,1.006.627,1.515l.087-.047" transform="translate(-69.964 -17.187)" fill="#1a1818"/>
    <path id="Path_762" data-name="Path 762" d="M21.119,20.063a.159.159,0,0,0,.032.046.551.551,0,0,0-.086,0Z" transform="translate(-11.478 -10.932)" fill="#1a1818"/>
  </g>
</svg>
