<svg id="Group_404" data-name="Group 404" xmlns="http://www.w3.org/2000/svg" xmlns:xlink="http://www.w3.org/1999/xlink" width="61.818" height="94" viewBox="0 0 61.818 94">
  <defs>
    <clipPath id="clip-path">
      <rect id="Rectangle_386" data-name="Rectangle 386" width="61.818" height="94" fill="none"/>
    </clipPath>
  </defs>
  <g id="Group_403" data-name="Group 403" clip-path="url(#clip-path)">
    <path id="Path_574" data-name="Path 574" d="M57.784,43.887a10.56,10.56,0,0,0-7.563-5.54,33.9,33.9,0,0,1-5.2-1.534c-2.505-.957-3.042-1.98-2.739-4.732A9.757,9.757,0,0,1,42.8,29.4a17.436,17.436,0,0,0,1.156-5.264,2.638,2.638,0,0,1,.876-1.923,1.607,1.607,0,0,0,.275-2.234,4.3,4.3,0,0,0-1.382-1.743,4.937,4.937,0,0,1-2.179-3.188,5.594,5.594,0,0,0-3.967-4.087,31.738,31.738,0,0,0-3.581-1.031,28.179,28.179,0,0,0-5.461-.364c-.623-.009-1.124-.088-1.307-.836a1.461,1.461,0,0,1,.436-1.575c.181-.162.426-.252.622-.4,1.356-1.031,1.572-1.908.873-3.392A11.287,11.287,0,0,0,26.812.474a1.756,1.756,0,0,0-1.62-.44c-1.423.217-2.784.67-3.445,2.1a3.572,3.572,0,0,0,.373,4.179A3.8,3.8,0,0,1,23.236,9.89c-2.925.444-5.759.479-8.523,1.09-2.41.533-4.622,1.354-6.181,3.4C7.2,16.137,5.783,17.805,4.554,19.669c-1.255,1.9-2.375,3.949-3.8,5.766-.411.524-1.115,1.337-.529,2a2.629,2.629,0,0,0,2.642,1.016,6.7,6.7,0,0,1,2.685-.364,2,2,0,0,1,1.712.85c.89,1.6.644,3.386.817,5.106.1.976-.645,1.243-1.226,1.678a1.632,1.632,0,0,0-.629,1.3c-.12,2.074-.364,4.147-.346,6.219.014,1.658.17,3.664,1.74,4.432,1.805.884,1.827,2.244,1.787,3.689-.2,7.228.007,14.445.374,21.661.037.719.254,1.556-.566,2.02-1.067.6-1.047,1.6-1.035,2.61.038,3.06.645,6.087.5,9.16A3.041,3.041,0,0,0,10.117,89.3a11.419,11.419,0,0,0,3.447,1.964,51.2,51.2,0,0,0,20.067,2.58,23.122,23.122,0,0,0,7.7-1.888c2.342-1.074,4.365-2.421,3.825-5.561a6.828,6.828,0,0,1,.191-2.229A2.471,2.471,0,0,1,47.98,81.8a4.328,4.328,0,0,0,1.915-.369A20.584,20.584,0,0,0,59.8,70.357a31.414,31.414,0,0,0-2.017-26.47M45.852,38.5c.463-.127.769.167,1.028.5a4.173,4.173,0,0,1,.535,2.285c-.059.478-.134.885-.153,1.294-.031.674-.388,1.182-1.017,1.162-.845-.028-.661-.81-.62-1.329a15.053,15.053,0,0,0-.294-2.929c-.047-.415.029-.847.521-.982M22.49,4.076c.064-1.756,1.242-2.624,3.5-2.58,1.02.02,2.607,1.855,2.55,2.949-.054,1.049-1.852,2.015-3.807,2.045A2.2,2.2,0,0,1,22.49,4.076m3.929,8.582c.125.529-.093.823-.6.782-.481-.04-1.24.4-1.294-.606-.067-1.231-.155-2.461-.212-3.693-.023-.509.039-1.028.663-1.156.779-.159.979.455,1.177.993a7.084,7.084,0,0,1,.081,2.6c.044.266.09.676.184,1.075M9.568,14.65a7.824,7.824,0,0,1,2.872-1.936,29.7,29.7,0,0,1,10.408-1.636,1.259,1.259,0,0,1-.185,1.32c-1.1,1.316-.993,1.836.594,2.049a14.681,14.681,0,0,0,3.72.031c1.738-.216,1.927-.94.8-2.417a3,3,0,0,1-.328-.641c-.028-.065.008-.158.025-.366a5.734,5.734,0,0,1,3.305-.464,22.549,22.549,0,0,1,7.439,1.87c1.688.768,3.348,4.4,2.773,6.14-.414,1.251-1.567,1.554-2.686,1.921-6.22,2.038-12.622,1.769-18.986,1.3a24.319,24.319,0,0,1-8.884-2.225c-3.272-1.588-3.454-2.437-.864-4.945M6.514,18.822c.494-.371.884.2,1.276.477a21.946,21.946,0,0,0,11,3.517A72.531,72.531,0,0,0,36.164,22.4a10.276,10.276,0,0,0,6.5-3.654c.772.782,1.655,1.3,1.3,2.366a2.922,2.922,0,0,1-2.526,1.8c-2.369.4-4.753.753-7.146.957-2.56.219-5.141.474-7.695.482A82.952,82.952,0,0,1,9.792,22.9a4.757,4.757,0,0,1-3.436-2.26,1.332,1.332,0,0,1,.159-1.818m35.266,5.53c-11.03,3.787-22.088,3.45-33.13-.072a115.929,115.929,0,0,0,33.13.072M2.307,25.426a13.154,13.154,0,0,1,2.634-4.37l2.683,2.488c-2.586-.662-3.758,1.042-5.316,1.882M4.613,26.9c-.329,0-.658-.031-1-.047C4.443,24.445,5.449,24,7.449,25.03a19.549,19.549,0,0,0,5.866,1.977,74.219,74.219,0,0,0,22.048.5c2.275-.316,4.509-.932,7.143-1.491-.82,3.4-1.559,6.461-1.327,9.654.081,1.129-.82,1.544-1.753,1.777a43.5,43.5,0,0,1-9.1,1.1,110.373,110.373,0,0,1-15.649-.681,18.149,18.149,0,0,1-2.436-.48A3.686,3.686,0,0,1,9.124,33.72c-.05-.993-.213-1.979-.3-2.97-.266-3.125-1.041-3.836-4.214-3.845m2.595,17.82a21.1,21.1,0,0,1,.028-6.914c.117-1.169.786-1.567,1.682-.948,3.723,2.572,8.047,2.268,12.214,2.65a92.435,92.435,0,0,0,11.087.094,26.354,26.354,0,0,0,10.369-1.969c1.186-.539,1.532-.162,1.6.913.136,2.051.25,4.1.357,6.157.048.918-.659,1.323-1.318,1.627a14.32,14.32,0,0,1-5.94,1.61c-3.981.013-7.963.236-11.8-.056-3.371,0-6.6-.009-9.83,0a27.25,27.25,0,0,1-5.669-.479,3.157,3.157,0,0,1-2.782-2.688m3.715,32.765c.948-.425,1.541.241,2.208.444a55.388,55.388,0,0,0,19.624,2.475,66.155,66.155,0,0,0,7.83-1.388c1.129-.2,1.636-.092,1.761,1.233.36,3.809-.569,5.337-4.353,6.157a39.952,39.952,0,0,1-18,.2,32.449,32.449,0,0,1-5.84-2.1c-1.852-.842-3.156-2.079-2.93-4.4a12.131,12.131,0,0,0-.3-2.623M38.527,78.65a27.187,27.187,0,0,1-4.4.785c-1.484.133-2.989.03-4.144.03a45.566,45.566,0,0,1-16.207-2.616c-2.655-.853-2.885-1.242-3.066-4.037-.217-3.338-.236-3.28,2.971-2.232a26.564,26.564,0,0,0,9.232,1.653,53.1,53.1,0,0,1,6.178.31,18.526,18.526,0,0,0,7.827-.99,38.133,38.133,0,0,1,4.13-.868c1.078-.251,1.606.149,1.53,1.263-.045.662-.21,1.322-.2,1.98.094,4.548-.679,3.894-3.857,4.721M25.737,65.523c.6.711,2.089.732,2.912.524a1.341,1.341,0,0,0,.591-.282c.624-.574.137-1.629.493-2.3a1.55,1.55,0,0,1,1.666-.63c2.478.224,4.97.336,7.436.651A4.51,4.51,0,0,1,41.7,65.7c.388.536.179,1.033-.359,1.5a5.859,5.859,0,0,1-3,1.1,63.943,63.943,0,0,1-16.079.6c-3.494-.264-6.807-1.377-10.178-2.212-.446-.11-1.052-.292-.844-.978.112-.37.335-.617.661-.634,1.739-1.646,4.517-1.987,6.966-1.987,1.849-.553,3.827-.008,5.7-.467.763-.186.9.333.846.825a2.78,2.78,0,0,0,.319,2.086m2.626-9.389c0,3.3,0,5.529,0,7.755,0,.5-.047,1.028-.719,1.067-.606.035-.884-.335-.94-.9-.106-1.068-.236-2.134-.308-3.2-.229-3.376-.432-6.753-.655-10.128-.068-1.036.1-1.789,1.424-1.73.9.04,1.351.243,1.281,1.285a46.913,46.913,0,0,0-.08,5.857m1.163,4.722c.02-.415.122-.784.65-.773.427.009.454.345.513.639-.033.359-.2.62-.557.645-.328.022-.627-.091-.606-.511m2.261.25c.054-.5.177-1.1.829-1.007.58.082,1.47.007,1.447.941-.019.759-.7.805-1.692.835-.146,0-.664-.036-.584-.77m3.493.281c.057-.57.477-.58.9-.487.383.085.821.151.79.731a.893.893,0,0,1-.98.521.636.636,0,0,1-.705-.765m4.247.68c-.046.22-.081.443-.12.664-.23-.079-.447-.174-.664-.264a.776.776,0,0,1-.565-.94.439.439,0,0,1,.528-.372c.53.049.965.231.822.912m.269.45c.408-.378.773-.888,1.416-.382a.543.543,0,0,1,.126.83c-.56.77-.956-.108-1.437-.153-.146-.014-.292-.042-.437-.066a2.156,2.156,0,0,0,.332-.229m2.4,6.165c-.049.436-.211.8-.717.772a.49.49,0,0,1-.421-.519c-.016-.522.428-.643.8-.731.351-.084.334.238.341.478m-2.776,1.454c-.331.113-.629.123-.7-.31-.085-.493.2-.727.642-.806.317-.057.646-.083.745.367.1.523-.308.621-.682.749m-1.847-.019c0,.374-.156.611-.556.608-.329,0-.684-.036-.7-.465a.586.586,0,0,1,.558-.653.619.619,0,0,1,.7.51m-2.492.313a.438.438,0,0,1-.381.533c-.509.079-1.006.69-1.551.063,0-.833.707-.805,1.206-.99.331-.122.666-.043.726.394m-3.275.611c-.141.671-.767.379-1.146.463-.431-.092-.984-.058-.847-.635.145-.61.743-.488,1.207-.471.408.014.9.1.786.644m-3.232-.171c-1.068.966-1.926.6-3.349.1a2.989,2.989,0,0,1,3.349-.1m-3.617-.308c-1.4.936-2.357,1.022-3.332.376a.7.7,0,0,1,.032-.638c1.045-.643,1.922-.049,3.3.262M19.569,71c-.408-.061-1.125.14-1.223-.693-.055-.47.231-.82.749-.7.54.128,1.271.124,1.433.776.127.513-.386.625-.959.614m-2.132-.863c-.169.087-.31.223-.449.221-.722-.011-1.517.1-1.849-.8a.461.461,0,0,1,.1-.422c.669-.431,1.231.048,1.822.258.239.085.415.241.375.74m-3.618-1.264a.537.537,0,0,1-.749.394c-.414-.144-1.03-.166-.928-.849A.5.5,0,0,1,12.851,68c.441.155.94.278.968.871m-1.791-6.413c.416-.125.814-.614,1.307-.153.1.712-.508.7-.908.878-.2.087-.466.21-.59-.129-.09-.244-.054-.522.192-.6m2.372-.717c.208-.779.9-.839,1.561-.813a.482.482,0,0,1,.5.655c-.037.918-.776.862-1.4.911a.575.575,0,0,1-.666-.752m3.507-1.481c.5-.236,1.083-.42,1.461.06a4.913,4.913,0,0,1,.456,1.489c-.358.033-.715.065-1.073.089-.5.033-1,.095-1.176-.583-.117-.448-.113-.843.333-1.055m2.515.642c-.026-1.031.285-1.393,1.193-1.317a14.078,14.078,0,0,1,.355,1.749,5.781,5.781,0,0,1-1.368.4,5.951,5.951,0,0,0-.18-.829m3.172.075a2.83,2.83,0,0,0-.866.105c.259-.068-.31-.908-.328-1.348-.009-.208.106-.326.491-.229a.88.88,0,0,1,.665.579c.033.084-.114.885.037.893m.939.246c-.042-.021-.083-.035-.125-.053a.32.32,0,0,0,0-.055c-.07-.454-.615-1.872.262-1.929.85-.054,1.011,2.6-.141,2.036m.6-2.626a4.037,4.037,0,0,0-1.236.015,4.362,4.362,0,0,0-1.483-.016,29.356,29.356,0,0,0-9.161,2.151c-.906.356-1.834.658-2.878,1.029a91.654,91.654,0,0,1-.095-11.591c.027-.9.332-1.433,1.535-1.386,3.735.142,7.479.121,11.219.082,1.2-.013,1.68.234,1.8,1.607.242,2.716.4,5.429.433,8.149a.522.522,0,0,0-.137-.04M10.667,67.683c.043-.088.242-.1.37-.145l.125.4c-.092.083-.2.25-.272.233a.321.321,0,0,1-.223-.485m31.568-2.833a.952.952,0,0,1-.31-.629c-.013-.236.19-.422.465-.471.343.182.271.525.269.817,0,.244-.128.518-.424.284m-5.483-5.2c-1.98-.213-3.946-.556-5.929-.725-.993-.085-1.549-.356-1.536-1.451.029-2.325.02-4.651,0-6.976-.01-1.059.513-1.494,1.525-1.5,1.909-.006,3.818-.032,5.727-.053a10.766,10.766,0,0,0,4.171-.536c.424-.179,1.044-.292,1.361.139a1.768,1.768,0,0,1,.26.876c.225,2.072.305,4.157.347,6.24.02,1.018.031,2.036.044,3.054.01.78-.208,2.044.17,2.729l-.022,0c-2.142-.184-3.984-1.569-6.118-1.8M9.888,80.018c.57.509.271,1.072.129,1.651a2.429,2.429,0,0,1-.129-1.651m-.4-3.046a1.341,1.341,0,0,1,.031,1.335,1.327,1.327,0,0,1-.031-1.335m34.672,9.535c-.067,2.8-2.081,3.982-4.228,4.916-3.263,1.42-6.776,1.389-10.256,1.491-5.384.158-10.516-1.145-15.568-2.775-2.523-.814-4.827-2.047-4.59-5.527a5.922,5.922,0,0,1,3.755.783c5.749,2.542,11.73,4.072,18.111,3.132,1.557-.23,3.133-.222,4.7-.513,2.314-.43,4.564-.888,6.4-2.5a1.344,1.344,0,0,1,1.393-.326c.558.251.3.842.286,1.32m-.275-8.294a4.535,4.535,0,0,1,.032,3.241c-.379-.978-.982-1.918-.032-3.241m2.47,2.424c-.054.328-.285.653-.656.581-.593-.115-.36-.634-.359-1,0-.344.146-.624.587-.608a.868.868,0,0,1,.428,1.029M46.243,78a12.121,12.121,0,0,1-2.8-1.359c-.226-.141-.2-.773-.194-1.18,0-1.328-.021-2.661.084-3.983.467-5.886-.277-11.763-.087-17.647.063-1.955.025-3.878-.064-5.834a.417.417,0,0,1,.137-.288,9.329,9.329,0,0,1,1.289-.841,13.073,13.073,0,0,0,1.358-1.278c1.707-1.792,3.5-2.405,5.647-.5a8.677,8.677,0,0,1,2.3,3.5,37.278,37.278,0,0,1,2.618,9.293A26.6,26.6,0,0,1,54.15,71.2c-1.082,2.566-3.234,4.387-5.354,6.135A2.783,2.783,0,0,1,46.243,78m8.122-1.208a14.47,14.47,0,0,1-5.341,3.532c-.378.132-1.146.693-1.447-.264-.238-.759.49-.718.841-.972a20.141,20.141,0,0,0,7.8-10.013c2.54-7.566,1.439-14.738-1.868-21.753-1.023-2.17-2.427-4.033-4.9-4.617-1.623-.383-.908-1.494-.88-2.355.041-1.26,1.083-.846,1.692-.751,3,.467,5.049,2.322,6.62,4.8,2.995,4.721,3.93,9.952,3.837,15.736.172,6.215-1.636,12-6.346,16.658" transform="translate(0 0)" fill="#1a1818"/>
    <path id="Path_575" data-name="Path 575" d="M26.52,73.47c-.621-2.169-.445-4.386-.509-6.719,1,1.2,1.1,2.264.509,6.719" transform="translate(-14.677 -37.666)"/>
    <path id="Path_576" data-name="Path 576" d="M78.425,66.152a61.09,61.09,0,0,0,6.344-.614,6.008,6.008,0,0,1-6.344.614" transform="translate(-44.253 -36.981)"/>
    <path id="Path_577" data-name="Path 577" d="M85.053,77.808c-1.246.19-2.456.8-3.748.451q-.033-.284-.066-.568l3.77-.533q.022.325.044.65" transform="translate(-45.841 -43.538)"/>
    <path id="Path_578" data-name="Path 578" d="M84.737,71.345a5.314,5.314,0,0,1-4.178.537c1.343-.914,2.477-.855,4.178-.537" transform="translate(-45.457 -40.139)"/>
    <path id="Path_579" data-name="Path 579" d="M30.841,74.506a4.638,4.638,0,0,1,.58-3.076c.057,1.241.246,1.982-.58,3.076" transform="translate(-17.384 -40.306)"/>
    <path id="Path_580" data-name="Path 580" d="M23.993,35.679c-.056-2.693,2.829-5.231,6.095-5.427-.833,1.359-2.41,1.275-3.4,2.15a33.856,33.856,0,0,0-2.7,3.277" transform="translate(-13.538 -17.07)"/>
    <path id="Path_581" data-name="Path 581" d="M31.079,37.141A3.978,3.978,0,0,1,33.348,34c-.127,1.759-1.348,2.344-2.269,3.145" transform="translate(-17.537 -19.183)"/>
    <path id="Path_582" data-name="Path 582" d="M35.935,167.419a4.074,4.074,0,0,1,.791,3.123,3.212,3.212,0,0,1-.791-3.123" transform="translate(-20.226 -94.47)"/>
    <path id="Path_583" data-name="Path 583" d="M32.4,164.984c.933.731.521,1.615.569,2.572a2.55,2.55,0,0,1-.569-2.572" transform="translate(-18.222 -93.096)"/>
    <path id="Path_584" data-name="Path 584" d="M80.593,185.675l5.851-1.309a7.314,7.314,0,0,1-5.851,1.309" transform="translate(-45.476 -104.033)"/>
    <path id="Path_585" data-name="Path 585" d="M88.02,189.451c-1.612.52-2.959.958-4.424.5,1.42.117,2.658-1.148,4.424-.5" transform="translate(-47.171 -106.798)"/>
    <path id="Path_586" data-name="Path 586" d="M32.059,187.073l.425-3.874.211.025v3.906l-.636-.057" transform="translate(-18.09 -103.374)"/>
    <path id="Path_587" data-name="Path 587" d="M35.751,186.961c.216.837.438,1.634-.37,2.377-.617-1.028.116-1.691.37-2.377" transform="translate(-19.828 -105.497)"/>
    <path id="Path_588" data-name="Path 588" d="M30.587,121.9c-.044-2.421,0-4.843-.055-7.264a10.114,10.114,0,0,1,.055,7.264" transform="translate(-17.228 -64.687)"/>
    <path id="Path_589" data-name="Path 589" d="M34.326,121.734v-5.017c.671,1.372.671,1.372,0,5.017" transform="translate(-19.369 -65.86)"/>
    <path id="Path_590" data-name="Path 590" d="M46.766,147.423a.6.6,0,0,1-.634.594.72.72,0,0,1-.677-.6c-.058-.353.059-.658.465-.689.481-.038.705.29.846.694" transform="translate(-25.641 -82.794)"/>
    <path id="Path_591" data-name="Path 591" d="M73.982,147.063c-.054.352-.25.59-.614.553a.6.6,0,0,1-.581-.625c0-.462.268-.764.734-.676.339.064.424.424.461.748" transform="translate(-41.071 -82.553)"/>
    <path id="Path_592" data-name="Path 592" d="M84.3,149.188a.553.553,0,0,1-.607-.563.725.725,0,0,1,.411-.5c.315-.129.653-.054.712.359.051.365-.2.57-.515.7" transform="translate(-47.223 -83.552)"/>
    <path id="Path_593" data-name="Path 593" d="M54.594,153.492a.631.631,0,0,1-.623.57.571.571,0,0,1-.6-.589.562.562,0,0,1,.586-.6c.343.013.522.3.634.616" transform="translate(-30.117 -86.264)"/>
    <path id="Path_594" data-name="Path 594" d="M34.717,151.077c-.263-.071-.448-.228-.4-.514a.561.561,0,0,1,.719-.47c.249.041.471.18.4.488a.592.592,0,0,1-.717.5" transform="translate(-19.361 -84.686)"/>
    <path id="Path_595" data-name="Path 595" d="M43.654,152.408a.562.562,0,0,1,.536.5c.075.325-.173.418-.421.455-.357.053-.668-.027-.728-.447-.041-.291.137-.445.613-.51" transform="translate(-24.284 -85.999)"/>
    <path id="Path_596" data-name="Path 596" d="M53.129,147.628c-.018.26-.118.491-.411.444a.67.67,0,0,1-.6-.655.39.39,0,0,1,.449-.437c.4.013.543.288.566.649" transform="translate(-29.406 -82.936)"/>
    <path id="Path_597" data-name="Path 597" d="M91.53,151.727a.39.39,0,0,1-.412-.451c.031-.2.2-.494.356-.533.383-.095.585.184.563.547-.016.272-.263.377-.507.437" transform="translate(-51.413 -85.05)"/>
    <path id="Path_598" data-name="Path 598" d="M76.54,153.652c-.3.051-.408-.287-.415-.575a.647.647,0,0,1,.35-.514c.282-.064.641-.027.691.4.042.363-.142.576-.626.688" transform="translate(-42.955 -86.073)"/>
    <path id="Path_599" data-name="Path 599" d="M86.217,152.641c.038-.011.17.183.2.426a.469.469,0,0,1-.184.38.39.39,0,0,1-.583-.167c-.076-.217.05-.454.571-.639" transform="translate(-48.316 -86.131)"/>
    <path id="Path_600" data-name="Path 600" d="M66.98,154.291v.066c0,.448.795.476.795.028v-.066c0-.448-.795-.476-.795-.028" transform="translate(-37.795 -86.88)"/>
    <path id="Path_601" data-name="Path 601" d="M38.859,147.111h-.066a.346.346,0,1,0-.024.684h.066a.346.346,0,1,0,.024-.684" transform="translate(-21.658 -83.011)"/>
    <path id="Path_602" data-name="Path 602" d="M60.459,154.564h-.066a.346.346,0,1,0-.024.684h.066a.346.346,0,1,0,.024-.684" transform="translate(-33.847 -87.216)"/>
  </g>
</svg>
