<svg id="Group_434" data-name="Group 434" xmlns="http://www.w3.org/2000/svg" xmlns:xlink="http://www.w3.org/1999/xlink" width="88.206" height="76.662" viewBox="0 0 88.206 76.662">
  <defs>
    <clipPath id="clip-path">
      <rect id="Rectangle_387" data-name="Rectangle 387" width="88.206" height="76.662" fill="none"/>
    </clipPath>
  </defs>
  <g id="Group_405" data-name="Group 405" clip-path="url(#clip-path)">
    <path id="Path_603" data-name="Path 603" d="M18.251,90.681c-7.412.141-15.275-6.453-17.278-13.7C.225,74.277-.346,71.633.246,68.817a9.481,9.481,0,0,1,2.7-5.09c1.4-1.377,3.088-2.675,3.663-4.745a2.935,2.935,0,0,1,1.989-1.9c3.264-1.2,6.568-1.725,9.876-.067,3.528,1.768,7.266,3.125,10.567,5.337,3.923,2.628,6.33,6.171,6.151,11.039-.094,2.557-1.331,4.856-2.146,7.245-1.823,5.341-5.61,8.417-11,9.727a13.878,13.878,0,0,1-3.791.314M8.209,63.687l1.4.187a3.125,3.125,0,0,0,.178.374c.015.024.12-.008.184-.015-.14-.106-.28-.213-.429-.312-.414-.362-.92-.186-1.387-.24-.2-.259-.261-.715-.767-.537-.888-1.517-.888-1.517-1.93-.534a4.69,4.69,0,0,0,1.99.476c.247.2.493.4.756.6m6.874,2.258.63.021c2.316.827,4.479,1.894,5.843,4.066.5.793,1.151,1.456,1.68,2.227.894,1.3,2.1,2.344,3.894,2.1l.02.138.042-.081a27.363,27.363,0,0,1-4.459-5.094,8.694,8.694,0,0,0-4.044-3.1c-.89-.375-1.9-1-2.945-.23l-.707-.005c.049-.581-.362-.5-.713-.484a.325.325,0,0,0-.173.115c.143.3.441.288.708.334a.861.861,0,0,0,.223-.01m6.28,16.7c1.2,0,1.838-.043,2.469.008A10.4,10.4,0,0,0,30.3,80.669c1.281-.812,1.322-1.229.476-2.486a5.138,5.138,0,0,0-3.366-2.066,8.839,8.839,0,0,1-5.725-4.238c-1.709-2.591-3.858-4.487-7.2-4.873a13.652,13.652,0,0,1-5.544-2.02,5.283,5.283,0,0,0-1.962-.817c-3.654-.5-5.97,1.215-5.229,5.016a2.871,2.871,0,0,0,.125.459A16.185,16.185,0,0,0,6.45,76.485a36.768,36.768,0,0,0,4.314,2.942c3.4,2.149,6.944,3.879,10.6,3.219m12.2-6.691a7.271,7.271,0,0,0,.511-1.15,7.77,7.77,0,0,0,.17-1.416c.281-4.862-2.3-8.171-6.146-10.513A82.464,82.464,0,0,0,17.628,57.82a10.026,10.026,0,0,0-8.493.322,2.41,2.41,0,0,0-1.652,2.112C7.4,61.411,8.178,61.9,9.037,62.4a20.063,20.063,0,0,0,7.918,2.344,9.056,9.056,0,0,1,5.876,3.258c1.152,1.306,2.237,2.673,3.328,4.032a3.391,3.391,0,0,0,3.207,1.634A3.208,3.208,0,0,1,31.9,74.764c.448.413.691,1.08,1.664,1.191m-1.881,5c-3.05,2.215-6.464,2.671-10.1,2.7a16.8,16.8,0,0,1-8.88-2.044c-1.438-.834-2.819-1.765-4.262-2.57a16.275,16.275,0,0,1-6.371-6.555c-.245-.441-.224-1.158-1.029-1.176a2.191,2.191,0,0,0-.129.668C1.934,79.8,5.711,85.647,13.2,88.68c6.994,2.834,16.2-.39,18.489-7.729M32.5,78.5c-.578-2.661-1.372-3.446-3.331-3.288A17.509,17.509,0,0,1,32.5,78.5M12.866,65.218c-.036-.041-.065-.1-.11-.117a.243.243,0,0,0-.187,0c-.122.085-.075.159.119.17a.555.555,0,0,0,.178-.054" transform="translate(0 -27.617)" fill="#1a1818"/>
    <path id="Path_604" data-name="Path 604" d="M7.5,77.478c-.383,3.037,1.59,5.059,2.9,7.382a8.684,8.684,0,0,1-3.516-4.88,2.117,2.117,0,0,1,.613-2.5" transform="translate(-3.316 -38.23)" fill="#181818"/>
    <path id="Path_605" data-name="Path 605" d="M12.1,82.793a5.341,5.341,0,0,1,2.141,2.745A4.753,4.753,0,0,1,12.1,82.793" transform="translate(-5.971 -40.853)" fill="#181818"/>
    <path id="Path_606" data-name="Path 606" d="M52.834,71.174c1.926.367,2.875,1.879,3.931,3.274-1.535-.813-2.524-2.314-3.931-3.274" transform="translate(-26.07 -35.119)" fill="#181818"/>
    <path id="Path_607" data-name="Path 607" d="M56.949,79.159l-2.454-2.812c1.527.275,2.041,1.511,2.91,2.408l-.456.4" transform="translate(-26.889 -37.672)" fill="#181818"/>
    <path id="Path_608" data-name="Path 608" d="M8.418,99.1c1.015,1.28.846,2.493,1.249,3.53-1.059-1.044-1.059-1.044-1.249-3.53" transform="translate(-4.154 -48.898)" fill="#181818"/>
    <path id="Path_609" data-name="Path 609" d="M12.65,103.738a5,5,0,0,1,1.185,3.512,6.128,6.128,0,0,1-1.185-3.512" transform="translate(-6.239 -51.187)" fill="#181818"/>
    <path id="Path_610" data-name="Path 610" d="M19.064,111.844a6.346,6.346,0,0,1-1.026-3.1c1.055,1.086,1.055,1.086,1.026,3.1" transform="translate(-8.9 -53.659)" fill="#181818"/>
    <path id="Path_611" data-name="Path 611" d="M24.009,111.617a3.787,3.787,0,0,1,1.051,2.835c-1.162-.717-.736-1.927-1.051-2.835" transform="translate(-11.847 -55.075)" fill="#181818"/>
    <path id="Path_612" data-name="Path 612" d="M51.774,112.477a1.429,1.429,0,0,1-.081,1.953c-.37-.625-.258-1.125.081-1.953" transform="translate(-25.393 -55.499)" fill="#181818"/>
    <path id="Path_613" data-name="Path 613" d="M39.277,117.177c-.011.242-.12.445-.368.442-.272,0-.323-.25-.287-.465.021-.127.12-.32.214-.34.253-.055.408.1.441.363" transform="translate(-19.052 -57.634)" fill="#181818"/>
    <path id="Path_614" data-name="Path 614" d="M32.159,115.386a1.846,1.846,0,0,1,.346.516.342.342,0,0,1-.353.45c-.276-.009-.334-.27-.355-.49s0-.444.361-.476" transform="translate(-15.687 -56.935)" fill="#181818"/>
    <path id="Path_615" data-name="Path 615" d="M45.109,117.592c.072.049.242.108.247.179a1.012,1.012,0,0,1-.068.638c-.3.376-.337-.068-.38-.2a.5.5,0,0,1,.2-.614" transform="translate(-22.142 -58.023)" fill="#181818"/>
    <path id="Path_616" data-name="Path 616" d="M104.4,28.208c-.845,0-1.695-.056-2.536.01-4.813.372-8.117-2.332-11.272-5.419-1.186-1.162-1.115-2.59-1.28-4.053-.679-6.035,1.669-10.314,6.914-13.4,6.77-3.981,13.89-6,21.755-5.158a10.2,10.2,0,0,1,7.627,4.216,3.736,3.736,0,0,1,.735,3.557,9.313,9.313,0,0,0-.6,2.778c-.219,10.473-11.747,18.71-20.709,17.5a4.714,4.714,0,0,0-.633,0Zm-2.8-11.915a24.656,24.656,0,0,0,10.238-7.166c2.325-2.548,4.814-4.689,8.366-5.22A1.5,1.5,0,0,0,121.7,2.739c-3.7.563-7.138,1.32-9.763,4.073a58.061,58.061,0,0,1-9.489,8.294c-.425.286-.9.586-.8,1.218a5.2,5.2,0,0,0-.861-.2c-.237-.017-.644-.152-.544.351.011.055.339.09.508.062a7.84,7.84,0,0,0,.855-.24M118.838,1.782c-9.527-1.569-15.769.687-23.712,5.736a10.7,10.7,0,0,0-4.4,6.379c-.761,2.546.049,3.353,2.67,2.8A27.287,27.287,0,0,0,108.2,8.769c2.971-3.182,6.037-6.218,10.635-6.987M117.611,19.32c1.113.543.486,1.762,1.44,2.276.621-.6,1.326-1.212,1.957-1.9a4.03,4.03,0,0,0,.788-3.3c-.207-1.7,2.146-.158,2-1.985-.162-2.06,1.306-4.06.912-6.558-2.746,4.811-3.387,5.756-7.081,7.779a47.612,47.612,0,0,1-22.309,6.24,7.819,7.819,0,0,0-3.562.32c2.009,1.611,3.451,3.2,5.538,3.889.844-.873-1.052-1.466.15-2.39,1.6,2.328,3.523,4.171,6.74,3.023.476-.625-.66-1.305.053-2.122,1.37,1.548,2.747,3.279,5.165,1.866.467-1.087-1.17-1.988-.324-3.14.68.166.712.78.943,1.211.489.916.7,2.008,2.255,1.5,1.448-.474,1.711-1.267,1.357-2.623-.136-.519-.393-1.215.233-1.777,1.271.492.4,1.984,1.221,2.663,3.066-.358,2.192-2.933,2.521-4.976m5.33-14.593c-5.227.84-6.763,1.51-9.4,4.488-4.641,5.236-10.15,8.793-17.275,9.552a4.383,4.383,0,0,0-3.083,1.1c.392.757.982.611,1.449.62a41.52,41.52,0,0,0,23.708-6.7,9.225,9.225,0,0,0,4.6-9.06m-25.011,12.2-.228.093a.664.664,0,0,0,.224.082.7.7,0,0,0,.226-.087l-.222-.088" transform="translate(-44.014 0)" fill="#1a1818"/>
    <path id="Path_617" data-name="Path 617" d="M102.83,23.285c-.163-1.912.847-3.205,1.7-4.584l.642.342-2.338,4.243" transform="translate(-50.731 -9.228)" fill="#181818"/>
    <path id="Path_618" data-name="Path 618" d="M98.946,20.038a11.717,11.717,0,0,1-2.239,4.6,7.629,7.629,0,0,1,2.239-4.6" transform="translate(-47.718 -9.887)" fill="#181818"/>
    <path id="Path_619" data-name="Path 619" d="M114.3,117.112a20.357,20.357,0,0,1-4.7-.6,12.335,12.335,0,0,1-9.084-10.938A17.793,17.793,0,0,1,105.166,91.6a27.162,27.162,0,0,1,18.651-9.581,13.9,13.9,0,0,1,7.6,1.756c2.649,1.3,3.785,3.316,5.027,5.74,1.6,3.129,1.536,6.189.938,9.413a19.12,19.12,0,0,1-5.032,10.325,25.559,25.559,0,0,1-13.321,7.446,32.843,32.843,0,0,1-4.728.411m1.024-3.014c1,.086,1.606,1.018,2.524,1.215a3.5,3.5,0,0,0,2.467-.329c.974-.55-.757-1.253.025-1.834a1.29,1.29,0,0,1,1.187.294,2.406,2.406,0,0,0,2.359.488c.813-.347,1.549-.665,1.142-1.816-.149-.423.3-.491.589-.361,2.149.967,3.118-.215,3.651-2.045.149-.51.4-.572.82-.7,1.808-.558,2.626-1.672,1.615-3.494.877-.406,1.437,1.143,2.03.124a15.409,15.409,0,0,0,1.262-3.217.9.9,0,0,0-.581-1.007c-.5-.223-.8.117-1.078.418-.431.465-.812.975-1.235,1.447a32.979,32.979,0,0,1-12.754,9.116c-1.332.513-2.968.44-3.952,1.764a9.843,9.843,0,0,0-4.387.268c2.377,1.859,2.666,1.821,4.318-.329m-3.584-1.976c.875.813,1.585.471,2.267.353a29.909,29.909,0,0,0,12.609-5.65,21.652,21.652,0,0,0,8.736-14.171,6.911,6.911,0,0,0-3.287-6.709c-1.2-.656-2.527.034-3.841-.309-.87-.226-1.825.9-2.633,1.587a17.54,17.54,0,0,0-3.334,4.215A37.607,37.607,0,0,0,118,101.995c-1.072,4.071-2.362,7.835-6.268,10.127m11.719-28.546a5.472,5.472,0,0,0-3.412.134c-5.4,1.943-10.417,4.315-14.33,8.881a17.251,17.251,0,0,0-4.121,12.243,8.9,8.9,0,0,0,2.324,5.779c1.191,1.335,2.239,1.139,3.381-.338a11.345,11.345,0,0,1,2.372-2.528,10.959,10.959,0,0,0,3.209-3.82,22.335,22.335,0,0,0,2.909-7.322,20.118,20.118,0,0,1,7.669-13.029m2.977.248a9.166,9.166,0,0,0-4.42,2.552c-2.762,2.442-4.009,5.6-4.842,9.046-1.327,5.492-3.007,10.8-7.883,14.371-.751.55-1.65,1.523-.941,2.394.949,1.167,1.557-.153,2.215-.739a14.388,14.388,0,0,1,1.279-.928,12.385,12.385,0,0,0,4.8-7.513c1.72-6.659,3.758-13.25,9.492-17.816.349-.278.505-.651.3-1.367m9.518,12.1c-.508,1.232-1.038,2.456-1.513,3.7-.162.424-.059.851.493.941.452.073.943-.072,1.015-.524.212-1.327.853-2.607.006-4.117m-27.005,18.165-.668.277a1.147,1.147,0,0,0,.969.688c.35.026.617-.2.555-.553s-.427-.36-.856-.412" transform="translate(-49.561 -40.449)" fill="#1a1818"/>
    <path id="Path_620" data-name="Path 620" d="M157,96c2.99,2.686,2.124,7.284-1.6,9.369,2.759-2.631,2.769-5.779,1.6-9.369" transform="translate(-76.681 -47.369)" fill="#181818"/>
    <path id="Path_621" data-name="Path 621" d="M154.943,102.512c.717,1.182.139,1.925-.481,2.635a.546.546,0,0,1-.534.067.582.582,0,0,1-.17-.535c.414-.658.358-1.613,1.185-2.167" transform="translate(-75.859 -50.582)" fill="#181818"/>
    <path id="Path_622" data-name="Path 622" d="M108.119,113.84c.01,2.9-1.185,5.722.015,8.6-1.771-2.884-1.422-5.77-.015-8.6" transform="translate(-52.763 -56.172)" fill="#181818"/>
    <path id="Path_623" data-name="Path 623" d="M114.206,111.569c-.441,2.113-.448,4.256-.788,6.65a8.326,8.326,0,0,1,.788-6.65" transform="translate(-55.782 -55.051)" fill="#181818"/>
  </g>
</svg>
