<svg xmlns="http://www.w3.org/2000/svg" xmlns:xlink="http://www.w3.org/1999/xlink" width="121.47" height="76" viewBox="0 0 121.47 76">
  <defs>
    <clipPath id="clip-path">
      <rect id="Rectangle_406" data-name="Rectangle 406" width="121.47" height="76" fill="none"/>
    </clipPath>
  </defs>
  <g id="Group_458" data-name="Group 458" transform="translate(0 0)">
    <g id="Group_458-2" data-name="Group 458" transform="translate(0 0)" clip-path="url(#clip-path)">
      <path id="Path_982" data-name="Path 982" d="M117.366,29.132a8.354,8.354,0,0,1,4.312,3.855,35.3,35.3,0,0,1,4.65,10.489,1.072,1.072,0,0,1-.549,1.412c-4.521,3.085-9.005,6.218-13.216,9.735q-4.341,3.626-8.47,7.48A128.094,128.094,0,0,1,88.331,74.822c-1.356.919-2.676,1.9-4.119,2.7a4.113,4.113,0,0,1-2.672.525c-4.992-.636-10-1.181-14.985-1.844a16.573,16.573,0,0,1-4.893-1.254" transform="translate(-5.386 -2.544)" fill="none" stroke="#181818" stroke-linecap="round" stroke-linejoin="round" stroke-width="1"/>
      <path id="Path_983" data-name="Path 983" d="M43.112,9.726c-7.307,3.409-14.533,6.955-20.883,11.947a89.013,89.013,0,0,0-16.147,15.7l-.485.6a3.925,3.925,0,0,1-.637.448.045.045,0,0,1-.065-.006.048.048,0,0,1,.006-.064,4.123,4.123,0,0,0,.579-.474l.428-.622a74.2,74.2,0,0,1,37.2-27.53" transform="translate(-0.427 -0.849)" fill="#181818"/>
      <path id="Path_984" data-name="Path 984" d="M100.61,6.813c-3.877.11-8.243-.35-12.105-.344l-4.052.042c-5.41-.221-10.749.3-16.15.3-.054.007-.07-.085-.01-.09a114.216,114.216,0,0,1,24.266-.842l8.061.842c.055,0,.051.1-.009.09" transform="translate(-5.962 -0.486)" fill="#181818"/>
      <path id="Path_985" data-name="Path 985" d="M107.765,12.591a32.533,32.533,0,0,1,13.078,8.289c1.157,1.208,1.26,1.764.42,3.3a118.09,118.09,0,0,1-8.714,13.4c-3.091,4.181-6.4,8.192-9.7,12.2C100.03,53.2,97.2,56.611,94.481,60.114a67.886,67.886,0,0,0-3.85,5.726,46.176,46.176,0,0,1-2.73,4.488,16.2,16.2,0,0,0-1.08,1.476" transform="translate(-7.584 -1.1)" fill="none" stroke="#181818" stroke-linecap="round" stroke-linejoin="round" stroke-width="1"/>
      <path id="Path_986" data-name="Path 986" d="M99.164,14.3a8.237,8.237,0,0,1-.521,1.7C97.6,19.813,96.327,23.549,95,27.264a129.206,129.206,0,0,1-6.575,16.165c-.132.256-.056.108-.321.569a7.856,7.856,0,0,0-.5,1.042l-1.3,3.331a9.671,9.671,0,0,0-.381,1.177c-.391,1.566-1.933,6.113-2.521,8.868-.254,1.191-.936,1.807-2.426,2.557-.4.2-1.266.817-1.7.971-2.611.926-4.618,1.62-7.236,2.51-1.251.425-2.207,1.333-3.4,1.823-3.147,1.292-6.289,2.6-9.467,3.809a4.335,4.335,0,0,1-3.282-.1c-.666-.287-1.264-.731-1.922-1.043-1.476-.7-2.976-1.4-4.409-2.131-1.583-.807-3.085-1.839-4.658-2.725s-4.046-2.521-5.557-3.517c-1.226-.808-2.588-1.425-3.869-2.16-5.354-3.077-10.688-6.189-16.058-9.238-3.5-1.988-6.95-4.081-10.628-5.745A15.467,15.467,0,0,0,5,41.817,6.709,6.709,0,0,1,.5,39.08c.244-.287.15-.651.3-.979a42.46,42.46,0,0,1,8.75-12.312A83.578,83.578,0,0,1,26.228,13.223a94.34,94.34,0,0,1,17.44-7.965,93.035,93.035,0,0,1,14.11-3.536A115.658,115.658,0,0,1,75.21.506q1.239.018,2.478.051A88.589,88.589,0,0,1,89.906,1.9a97.465,97.465,0,0,1,11.621,2.878,2.1,2.1,0,0,1,.037.99,16.188,16.188,0,0,0-1.357,3.714,49.1,49.1,0,0,1-1.158,5.4" transform="translate(-0.044 -0.043)" fill="none" stroke="#181818" stroke-linecap="round" stroke-linejoin="round" stroke-width="1"/>
      <path id="Path_987" data-name="Path 987" d="M75.511,63.065a81.521,81.521,0,0,1-16.163,8.292,79.086,79.086,0,0,1,7.892-4.528q4.052-2.062,8.235-3.849c.05-.022.091.059.037.084" transform="translate(-5.184 -5.501)" fill="#181818"/>
      <path id="Path_988" data-name="Path 988" d="M32.2,21.368C28.368,25.135,24.415,28.517,20.386,32a49.319,49.319,0,0,1-4.191,3.384A83.037,83.037,0,0,1,32.2,21.368" transform="translate(-1.415 -1.866)" fill="#181818"/>
      <path id="Path_989" data-name="Path 989" d="M28.663,32.322c-3.714,2.782-9,7.051-12.753,9.67a35.365,35.365,0,0,1,5.862-5.531c1.792-1.309,5.025-3.661,6.891-4.14" transform="translate(-1.39 -2.823)" fill="#181818"/>
      <path id="Path_990" data-name="Path 990" d="M96.273,11.987a28.761,28.761,0,0,1-11.943-.7,54.692,54.692,0,0,1,11.943.7" transform="translate(-7.366 -0.982)" fill="#181818"/>
      <path id="Path_991" data-name="Path 991" d="M123.548,38.371a22.875,22.875,0,0,1-9.221,4.581c-.474.11-1.281.349-1.574-.245a.044.044,0,0,1,.069-.054c.374.379.881.05,1.305-.14l1.335-.615c1.688-.8,6.278-2.833,8.048-3.611a.046.046,0,0,1,.037.083" transform="translate(-9.848 -3.344)" fill="#181818"/>
      <path id="Path_992" data-name="Path 992" d="M28.861,37.09c-3.295,2.7-6.641,5.637-10.692,6.988,1.647-1.311,3.459-2.539,5.173-3.806a34.532,34.532,0,0,1,5.481-3.265.046.046,0,0,1,.037.083" transform="translate(-1.587 -3.232)" fill="#181818"/>
      <path id="Path_993" data-name="Path 993" d="M84.6,77.471a42.528,42.528,0,0,1-4.968.744c-1.8.083-3.6.093-5.4.086-3.951-.017-7.909.163-11.852.133-.406,0-.957-.193-1.009.526" transform="translate(-5.361 -6.767)" fill="none" stroke="#181818" stroke-linecap="round" stroke-linejoin="round" stroke-width="1"/>
      <path id="Path_994" data-name="Path 994" d="M117.237,45.129c-2.138,1.635-4.55,3.307-7.284,3.358a31.461,31.461,0,0,1,7.263-3.446.046.046,0,0,1,.021.089" transform="translate(-9.604 -3.934)" fill="#181818"/>
      <path id="Path_995" data-name="Path 995" d="M126.1,34.413a16.433,16.433,0,0,1-5.125,2.676,5.733,5.733,0,0,1-2.052.363,23.414,23.414,0,0,1,7.156-3.128.046.046,0,0,1,.021.089" transform="translate(-10.388 -2.998)" fill="#181818"/>
      <path id="Path_996" data-name="Path 996" d="M29.243,43.032a13.614,13.614,0,0,1-5.539,3.5,3.32,3.32,0,0,1-1.071.114.043.043,0,0,1-.041-.045c2.166-1.233,4.2-2.859,6.62-3.653.053-.016.078.057.031.086" transform="translate(-1.973 -3.751)" fill="#181818"/>
      <path id="Path_997" data-name="Path 997" d="M43.279,56.311a7.932,7.932,0,0,1-5.971,2.014.042.042,0,0,1-.014-.079,24.008,24.008,0,0,1,2.92-1.192c1-.311,2.022-.574,3.04-.831.055-.009.068.062.024.089" transform="translate(-3.256 -4.911)" fill="#181818"/>
      <path id="Path_998" data-name="Path 998" d="M109.446,29.986a12.63,12.63,0,0,1-4.141,2.989,3.479,3.479,0,0,1-1.836.408,23.77,23.77,0,0,1,5.947-3.483c.054-.015.075.057.03.086" transform="translate(-9.038 -2.611)" fill="#181818"/>
      <path id="Path_999" data-name="Path 999" d="M109.615,53.378c.084.623-.878.987-1.212,1.209-1.3.771-2.953,1.686-4.5,1.419a26.013,26.013,0,0,1,4.268-2.1c.509-.15,1.108-.091,1.369-.574.03-.049.09,0,.079.045" transform="translate(-9.076 -4.656)" fill="#181818"/>
      <path id="Path_1000" data-name="Path 1000" d="M33.069,50.254c-1.428,1.435-3.467,2.62-5.527,2.126-.047,0-.08-.066-.025-.088,1.859-.568,3.61-1.715,5.529-2.126.056-.009.067.061.023.089" transform="translate(-2.401 -4.382)" fill="#181818"/>
      <path id="Path_1001" data-name="Path 1001" d="M110.449,24.161a6.882,6.882,0,0,1-4.352,2.946.827.827,0,0,1-.911-.423.041.041,0,0,1,.019-.055c.464.282.906-.066,1.336-.336a23.86,23.86,0,0,1,3.872-2.216c.053-.017.075.051.036.084" transform="translate(-9.188 -2.103)" fill="#181818"/>
      <path id="Path_1002" data-name="Path 1002" d="M46.158,59.8a4.983,4.983,0,0,1-5.1,1.7c-.046,0-.084-.063-.029-.087,1.259-.465,3.818-1.318,5.1-1.7.056-.013.068.056.029.087" transform="translate(-3.581 -5.216)" fill="#181818"/>
      <path id="Path_1003" data-name="Path 1003" d="M103.244,60.271a9.109,9.109,0,0,1-5.006,2.865.042.042,0,0,1-.037-.07,10.473,10.473,0,0,1,2.321-1.764,17.384,17.384,0,0,1,2.692-1.116c.055-.014.071.055.03.086" transform="translate(-8.577 -5.257)" fill="#181818"/>
      <path id="Path_1004" data-name="Path 1004" d="M112.706,15.649c-.486,1.99-3.021,3.6-4.962,2.929a15.379,15.379,0,0,0,4.9-3c.044-.035.088.023.063.067" transform="translate(-9.411 -1.36)" fill="#181818"/>
      <path id="Path_1005" data-name="Path 1005" d="M131.261,42.448a8.835,8.835,0,0,1-4.475,3.5,10.077,10.077,0,0,1,4.435-3.586c.053-.019.076.047.039.082" transform="translate(-11.075 -3.7)" fill="#181818"/>
      <path id="Path_1006" data-name="Path 1006" d="M99.462,48.85a5.115,5.115,0,0,1-4.09,3.047c-.177.04-.437-.1-.435-.291-.022-.05.024-.107.068-.06.144.2.332.011.515-.115l.548-.39,1.1-.78,2.246-1.487c.048-.026.08.036.051.076" transform="translate(-8.292 -4.26)" fill="#181818"/>
      <path id="Path_1007" data-name="Path 1007" d="M36.829,54.09c-.444,1.708-2.743,2.351-4.215,1.755,1.327-.729,2.93-.907,4.158-1.827.048-.03.078.031.057.072" transform="translate(-2.849 -4.718)" fill="#181818"/>
      <path id="Path_1008" data-name="Path 1008" d="M31.1,46.527a3.878,3.878,0,0,1-4.138,1.486c-.043,0-.088-.057-.034-.085a18.708,18.708,0,0,1,4.153-1.49c.057,0,.054.061.018.089" transform="translate(-2.35 -4.056)" fill="#181818"/>
      <path id="Path_1009" data-name="Path 1009" d="M56.65,65.863a3.3,3.3,0,0,1-3.855,1.476,14.23,14.23,0,0,1,3.827-1.562c.056-.011.058.055.028.087" transform="translate(-4.612 -5.745)" fill="#181818"/>
      <path id="Path_1010" data-name="Path 1010" d="M50.055,61.3c.237.676-.635,1.116-1.071,1.367A2.356,2.356,0,0,1,46.4,62.7c-.022-.018-.058-.048-.03-.078.991-.074,1.845-.749,2.839-.892a.937.937,0,0,0,.762-.476c.027-.051.078,0,.083.037" transform="translate(-4.05 -5.349)" fill="#181818"/>
      <path id="Path_1011" data-name="Path 1011" d="M108.326,4.674a2.427,2.427,0,0,1-.994,3.639c.193-1.1.753-2.431.9-3.652.015-.055.074-.026.09.013" transform="translate(-9.375 -0.404)" fill="#181818"/>
      <path id="Path_1012" data-name="Path 1012" d="M60.753,78.4c-1.04-.275-1.5-1-2.339-1.85-.863-.879-2.212-2.687-3.507-3.062" transform="translate(-4.796 -6.419)" fill="none" stroke="#181818" stroke-linecap="round" stroke-linejoin="round" stroke-width="1"/>
      <path id="Path_1013" data-name="Path 1013" d="M122.722,21.121a4.3,4.3,0,0,1-2.573,3.509c.217-1.318,1.569-2.553,2.505-3.57.043-.037.08.017.068.061" transform="translate(-10.495 -1.838)" fill="#181818"/>
      <path id="Path_1014" data-name="Path 1014" d="M63.9,73.083a2.72,2.72,0,0,1-3.508,1.489c-.039-.007-.088-.055-.036-.084.858-.411,2.617-1.157,3.508-1.489.055-.016.06.049.036.084" transform="translate(-5.27 -6.376)" fill="#181818"/>
      <path id="Path_1015" data-name="Path 1015" d="M54.49,63.3a2.1,2.1,0,0,1-3.19.638c-.032-.018-.074-.071-.017-.089.787-.2,2.386-.521,3.189-.638.057,0,.044.06.018.089" transform="translate(-4.477 -5.521)" fill="#181818"/>
      <path id="Path_1016" data-name="Path 1016" d="M96.7,67.025a2.526,2.526,0,0,1-2.9,1.9,8.634,8.634,0,0,1,2.86-1.984c.054-.018.059.047.04.082" transform="translate(-8.193 -5.847)" fill="#181818"/>
      <path id="Path_1017" data-name="Path 1017" d="M96.168,54.783a1.9,1.9,0,0,1-2.537,1.861c.532-.782,1.805-1.147,2.469-1.921.042-.037.07.022.068.06" transform="translate(-8.179 -4.779)" fill="#181818"/>
      <path id="Path_1018" data-name="Path 1018" d="M82.016,65.4a1.929,1.929,0,0,1-2.788.931,6.17,6.17,0,0,1,2.782-1.022c.057,0,.031.065.006.091" transform="translate(-6.921 -5.704)" fill="#181818"/>
      <path id="Path_1019" data-name="Path 1019" d="M58.507,68.426a1.927,1.927,0,0,1-2.688,1.255,6.89,6.89,0,0,1,2.662-1.343c.056-.008.045.057.026.088" transform="translate(-4.876 -5.969)" fill="#181818"/>
      <path id="Path_1020" data-name="Path 1020" d="M105.5,13.763a1.754,1.754,0,0,1-1.329,2.889,8.21,8.21,0,0,0,1.24-2.91c.019-.052.072-.014.089.021" transform="translate(-9.099 -1.198)" fill="#181818"/>
      <path id="Path_1021" data-name="Path 1021" d="M75.99,67.959a1.462,1.462,0,0,1-2.593.814,14.657,14.657,0,0,0,2.565-.9c.055-.01.043.056.028.087" transform="translate(-6.411 -5.928)" fill="#181818"/>
      <path id="Path_1022" data-name="Path 1022" d="M125.07,47.908c.206,1.415-1.064,2.185-2.337,2.231-.026,0-.079.015-.081-.028.549-.971,1.665-1.413,2.346-2.257.039-.041.073.016.073.055" transform="translate(-10.714 -4.178)" fill="#181818"/>
      <path id="Path_1023" data-name="Path 1023" d="M115.362,32.88a1.758,1.758,0,0,1-1.636,2.343c.142-.861,1.076-1.625,1.559-2.391.037-.044.07.013.078.048" transform="translate(-9.934 -2.866)" fill="#181818"/>
      <path id="Path_1024" data-name="Path 1024" d="M91.778,49.645a1.369,1.369,0,0,1-.289,1.888l-.664.433-.042.027c-.262-.8.609-1.648.91-2.38.026-.049.07,0,.086.032" transform="translate(-7.926 -4.332)" fill="#181818"/>
      <path id="Path_1025" data-name="Path 1025" d="M103.428,38c.423,1.327-.894,2.265-2.132,2.027-.026,0-.081,0-.076-.041.616-.778,1.592-1.194,2.129-2.032.034-.044.072.011.078.047" transform="translate(-8.842 -3.314)" fill="#181818"/>
      <path id="Path_1026" data-name="Path 1026" d="M120.418,51.64a1.422,1.422,0,0,1-2.29,1.47,6.183,6.183,0,0,0,2.224-1.534c.044-.035.065.029.066.064" transform="translate(-10.319 -4.504)" fill="#181818"/>
      <path id="Path_1027" data-name="Path 1027" d="M101.563,42.793c.005,1.228-.915,1.761-2.058,1.582.308-.742,1.327-1.2,2.006-1.656.049-.026.057.041.052.075" transform="translate(-8.692 -3.731)" fill="#181818"/>
      <path id="Path_1028" data-name="Path 1028" d="M108.86,42.427a1.291,1.291,0,0,1-1.441,2.02,10,10,0,0,0,1.36-2.061c.03-.046.068.011.081.041" transform="translate(-9.383 -3.701)" fill="#181818"/>
      <path id="Path_1029" data-name="Path 1029" d="M101.321,24.486a1.178,1.178,0,0,1-1.124,2.022,6.722,6.722,0,0,0,1.04-2.056c.026-.047.068.008.085.035" transform="translate(-8.752 -2.134)" fill="#181818"/>
      <path id="Path_1030" data-name="Path 1030" d="M118.67,27.508c.854.992-.019,2.193-1.223,2.14.155-.722.956-1.374,1.134-2.161.019-.052.069-.005.089.021" transform="translate(-10.259 -2.399)" fill="#181818"/>
      <path id="Path_1031" data-name="Path 1031" d="M100.272,68.19a1.477,1.477,0,0,1-2.011,1.483c-.031-.008-.1-.031-.057-.072a7.387,7.387,0,0,1,2.029-1.494c.053-.016.047.051.038.083" transform="translate(-8.577 -5.949)" fill="#181818"/>
      <path id="Path_1032" data-name="Path 1032" d="M69.281,70.988c-.329,1.117-1.162,1.277-2.052.6a4.1,4.1,0,0,1,2.032-.694c.054,0,.029.061.019.089" transform="translate(-5.872 -6.193)" fill="#181818"/>
      <path id="Path_1033" data-name="Path 1033" d="M95.42,39.859c.512.524.663,1.177.094,1.625a1.626,1.626,0,0,1-.785.3.03.03,0,0,1-.034-.037,15.531,15.531,0,0,1,.638-1.914c.023-.047.068.008.087.029" transform="translate(-8.272 -3.477)" fill="#181818"/>
      <path id="Path_1034" data-name="Path 1034" d="M88.214,58.481c1.1.6.609,1.939-.589,1.938.05-.6.52-1.266.5-1.935,0-.053.066-.016.091,0" transform="translate(-7.654 -5.106)" fill="#181818"/>
      <path id="Path_1035" data-name="Path 1035" d="M103.64,20.2c.032.58.329.562.246,1.011a.98.98,0,0,1-1.247.666.03.03,0,0,1-.009-.05c.466-.463.287-1.369.963-1.706.047-.02.044.05.047.078" transform="translate(-8.964 -1.757)" fill="#181818"/>
      <path id="Path_1036" data-name="Path 1036" d="M112.134,37.9c.371,1.071-.092,1.684-1.214,1.69a3.582,3.582,0,0,1,1.15-1.756c.043-.032.057.037.064.066" transform="translate(-9.689 -3.304)" fill="#181818"/>
      <path id="Path_1037" data-name="Path 1037" d="M91.916,75.413c-.065,1.13-.68,1.5-1.737,1.144a3.273,3.273,0,0,1,1.7-1.228c.051-.014.038.056.034.085" transform="translate(-7.877 -6.579)" fill="#181818"/>
      <path id="Path_1038" data-name="Path 1038" d="M104.9,47.328c.3.675.205,1.343-.486,1.572a1.626,1.626,0,0,1-.842.012.03.03,0,0,1-.019-.047,15.9,15.9,0,0,1,1.276-1.594c.038-.037.06.029.071.057" transform="translate(-9.045 -4.128)" fill="#181818"/>
      <path id="Path_1039" data-name="Path 1039" d="M105.207,64.232c-.133.548.131.665-.145,1.038a.917.917,0,0,1-1.377-.017.029.029,0,0,1,.016-.047c.6-.176.814-.972,1.488-1.063.05,0,.024.064.019.089" transform="translate(-9.056 -5.603)" fill="#181818"/>
      <path id="Path_1040" data-name="Path 1040" d="M116.148,54.915c-.229.519.117.611-.163.958-.309.307-1.114.437-1.35-.159a.028.028,0,0,1,.024-.04c.6-.056.82-.894,1.488-.851.049.005.01.067,0,.091" transform="translate(-10.013 -4.788)" fill="#181818"/>
      <path id="Path_1041" data-name="Path 1041" d="M111.933,57.561a.84.84,0,0,1,.085,1.238c-.353.277-.585.047-1.107.042.062-.518.79-.788.934-1.3.016-.047.067.007.089.022" transform="translate(-9.688 -5.024)" fill="#181818"/>
      <path id="Path_1042" data-name="Path 1042" d="M93.46,45.451c.46.35.812.846.253,1.147a1.689,1.689,0,0,1-.741.13.025.025,0,0,1-.024-.03,6.587,6.587,0,0,1,.425-1.276c.019-.041.068.018.087.029" transform="translate(-8.119 -3.966)" fill="#181818"/>
      <path id="Path_1043" data-name="Path 1043" d="M100.382,52.112a1.552,1.552,0,0,1-.024,1c-.269.129-.526.037-.973.15-.079-.521.508-1,.946-1.228.043-.022.043.053.05.077" transform="translate(-8.681 -4.545)" fill="#181818"/>
      <path id="Path_1044" data-name="Path 1044" d="M95.137,72.14c.277.569.306,1.186-.351,1.282a1.619,1.619,0,0,1-.768-.133.026.026,0,0,1-.012-.041,9.229,9.229,0,0,1,1.063-1.169c.037-.033.056.04.068.061" transform="translate(-8.211 -6.295)" fill="#181818"/>
      <path id="Path_1045" data-name="Path 1045" d="M108.523,60.971a5.6,5.6,0,0,1-.032.9,5.819,5.819,0,0,1-.9.032c-.018-.005-.089.015-.087-.023a1.566,1.566,0,0,1,.338-.654,1.184,1.184,0,0,1,.676-.321s0,.068,0,.07" transform="translate(-9.391 -5.319)" fill="#181818"/>
    </g>
  </g>
</svg>
