<svg xmlns="http://www.w3.org/2000/svg" xmlns:xlink="http://www.w3.org/1999/xlink" width="79.561" height="109.372" viewBox="0 0 79.561 109.372">
  <defs>
    <clipPath id="clip-path">
      <rect id="Rectangle_401" data-name="Rectangle 401" width="79.561" height="109.372" transform="translate(0 0)" fill="none"/>
    </clipPath>
  </defs>
  <g id="Group_444" data-name="Group 444" transform="translate(0 0)">
    <g id="Group_443" data-name="Group 443" clip-path="url(#clip-path)">
      <path id="Path_946" data-name="Path 946" d="M64.924,56.751a14.59,14.59,0,0,1-2.418.871c-1.09.169-1.871.383-1.53,1.722.284,1.119.606,1.926,2.131,1.622.989-.2,2.064-.7,3.315.14-1.779,1.174-3.889,1.1-5.645,1.908-.539.249-.924-.4-.981-.941a34.971,34.971,0,0,0-1.443-7.58c-.3-.882.293-1.413,1.1-1.564A12.339,12.339,0,0,1,65.466,53c-1.349,1.3-2.694.6-3.81.847-.7.157-1.613.013-1.581,1.095.032,1.063.752,1.384,1.732,1.374.888-.009,1.82-.714,3.117.431" fill="#181818"/>
      <path id="Path_947" data-name="Path 947" d="M31.844,60.926a3.788,3.788,0,0,1,.4-2.451c1.786-2.609,4.218-2.515,5.739.287a5.518,5.518,0,0,1,.478,5.2C37.7,65.638,36.392,66.849,35,66.748A3.593,3.593,0,0,1,31.958,63.5c-.1-.628-.063-1.279-.114-2.573m5.376,1.11c-.074-.48-.1-.91-.211-1.32-.307-1.179-.881-2.45-2.143-2.459-1.634-.013-1.244,1.663-1.555,2.7a4.612,4.612,0,0,0,.106,2.528c.36,1.359,1.5,1.7,2.711.978a2.525,2.525,0,0,0,1.092-2.424" fill="#181818"/>
      <path id="Path_948" data-name="Path 948" d="M73,51.538C72.049,52.7,71,52.565,70.1,52.775c-1.087.255-1.361.767-1.092,1.837.281,1.119.917.971,1.691.7a4.77,4.77,0,0,1,1.215-.366,1.066,1.066,0,0,1,.772.4c.233.308,0,.64-.3.759-.789.317-1.6.572-2.408.853.246,3.308.246,3.308,5.282,2.349.332.674-.054.934-.622,1.118-1.324.428-2.636.893-3.966,1.3a1.315,1.315,0,0,1-1.871-1.17,52.391,52.391,0,0,0-1.454-7.235c-.15-.526.051-1.432.42-1.415,1.647.077,3.184-1.258,5.243-.361" fill="#181818"/>
      <path id="Path_949" data-name="Path 949" d="M54.131,53.716a3.092,3.092,0,0,1,.745.117.682.682,0,0,1,.48.783c-.041.381-.252.652-.62.61a4.461,4.461,0,0,0-2.526.181c-.634.3-1.175.63-1.048,1.5.118.809.242,1.66,1.238,1.75a7.983,7.983,0,0,0,.966,0c.6-.02,1.108.207,1.148.9.044.77-.556.9-1.108.927-1.421.061-1.182.885-.784,1.865.288.708.246,1.5-.539,1.678-.84.194-1.034-.635-1.125-1.338-.205-1.608-.88-3.069-1.052-4.718-.337-3.238-.136-3.726,2.74-4.183.316-.05.642-.031,1.485-.064" fill="#181818"/>
      <path id="Path_950" data-name="Path 950" d="M27.019,59.9a1.5,1.5,0,0,0-1.829.876,4.245,4.245,0,0,0,.085,4.3c.769,1.341,1.9,1.019,3.032.358a.879.879,0,0,1,1.339.408c.277.662-.229.962-.733,1.173-3.19,1.331-5.532-.059-5.9-3.49a4.923,4.923,0,0,1,3.058-5.4c.2-.083.381-.2.58-.277a1.477,1.477,0,0,1,1.693.586,1.115,1.115,0,0,1,.321,1.174,1.072,1.072,0,0,1-.725.5,2.539,2.539,0,0,1-.917-.206" fill="#181818"/>
      <path id="Path_951" data-name="Path 951" d="M45.811,59.8a.946.946,0,0,1-.949.925c-1.695.114-2.021.9-1.2,2.31a2.215,2.215,0,0,1,.3.568c.127.56.062,1.111-.557,1.323a.891.891,0,0,1-1.216-.705c-.23-.931-.364-1.888-.521-2.836-.1-.635-.169-1.277-.269-1.912-.19-1.215-1.167-2.751.029-3.556a7.237,7.237,0,0,1,4.606-1.1c.456.041.827.251.84.773a.786.786,0,0,1-.792.832,5.926,5.926,0,0,0-1.9.06,1.753,1.753,0,0,0-1.411,2.157c.162,1.159,1.064.773,1.764.755a1.565,1.565,0,0,1,1.282.406" fill="#181818"/>
      <path id="Path_952" data-name="Path 952" d="M43.527,30.56a1.7,1.7,0,0,1,1.346,1.823c.23,2.913.24,5.852,1.172,8.67.18.544.126,1.113-.409,1.358a.771.771,0,0,1-1.116-.724c-.258-3.66-1.482-7.245-.993-11.127" fill="#181818"/>
      <path id="Path_953" data-name="Path 953" d="M39.356,44.13c-1.785-1.985-4.331-3.47-4.7-6.873,3.741,1.186,4.476,3.86,4.7,6.873" fill="#181818"/>
      <path id="Path_954" data-name="Path 954" d="M56.235,32.943a17.575,17.575,0,0,1-1.707,8.52,12,12,0,0,1,1.707-8.52" fill="#181818"/>
      <path id="Path_955" data-name="Path 955" d="M68.241,39.871c-1.471,1.71-2.981,3.5-4.543,5.243A.7.7,0,0,1,62.659,45a.771.771,0,0,1,.006-1.058,33.326,33.326,0,0,0,4.059-4.774.751.751,0,0,1,1.046-.134c.182.124.247.422.471.84" fill="#181818"/>
      <path id="Path_956" data-name="Path 956" d="M48.439,84.109c-.926-2.956-2.244-5.888-.671-9a67.1,67.1,0,0,1,.671,9" fill="#181818"/>
      <path id="Path_957" data-name="Path 957" d="M27.061,42.208c1.651,1.295,2.758,2.947,4.292,4.2a.969.969,0,0,1,.214,1.41.786.786,0,0,1-1.325-.167c-1.143-1.775-3.472-2.822-3.181-5.441" fill="#181818"/>
      <path id="Path_958" data-name="Path 958" d="M71.126,75.517c-2.318-.453-2.339-2.927-4.184-3.335-.47-.1-.4-.874.057-1.3a1.006,1.006,0,0,1,1.425-.033,8.836,8.836,0,0,1,2.7,4.667" fill="#181818"/>
      <path id="Path_959" data-name="Path 959" d="M58.582,73.866c2.264,2.223,2.619,4.393,2.995,6.553a11.106,11.106,0,0,1-2.995-6.553" fill="#181818"/>
      <path id="Path_960" data-name="Path 960" d="M33.917,73.081a6.381,6.381,0,0,1-2.036,3.727c-1.358-2.722-1.358-2.722,2.036-3.727" fill="#181818"/>
      <path id="Path_961" data-name="Path 961" d="M35.3,80.41c.271-2.116-.045-4.4,2.31-6.733-.759,2.789-.745,4.986-2.31,6.733" fill="#181818"/>
      <path id="Path_962" data-name="Path 962" d="M41.028,36.609c1.025-.185,1.2.482,1.425,1.08.275.732.66,1.626-.077,2.137-.661.458-1.142-.212-1.367-.864-.277-.8-.816-1.642.019-2.353" fill="#181818"/>
      <path id="Path_963" data-name="Path 963" d="M48.884,36.579c1.4.551.879,1.792,1.044,2.72.088.494-.156,1.124-.86.981a1.118,1.118,0,0,1-.665-.8c-.108-.972-.442-2.029.481-2.9" fill="#181818"/>
      <path id="Path_964" data-name="Path 964" d="M29.195,51.959c-.782-.552-1.335-.882-1.815-1.3-.626-.543-1.137-1.288-.327-1.952.729-.6,1.091.294,1.443.744a2.213,2.213,0,0,1,.7,2.506" fill="#181818"/>
      <path id="Path_965" data-name="Path 965" d="M41.4,74.575c.387.341.57.433.564.507-.1,1.1.371,2.388-.975,3.083a.362.362,0,0,1-.341-.087c-.787-1.447.183-2.335.752-3.5" fill="#181818"/>
      <path id="Path_966" data-name="Path 966" d="M33.161,43.421c1.3-.249,1.619.583,2.1,1.158A.713.713,0,0,1,35.3,45.6a.664.664,0,0,1-1.013-.011,2.882,2.882,0,0,1-1.128-2.173" fill="#181818"/>
      <path id="Path_967" data-name="Path 967" d="M63.73,72.689c.681.816,1.054,1.073,1.137,1.4.18.709.646,1.758-.535,1.89-.9.1-.69-.918-.741-1.525a14.565,14.565,0,0,1,.139-1.768" fill="#181818"/>
      <path id="Path_968" data-name="Path 968" d="M59.581,39.812c.685.246.79.632.632.994-.293.677-.415,1.625-1.516,1.4-.141-.028-.319-.446-.286-.653a2.327,2.327,0,0,1,1.17-1.746" fill="#181818"/>
      <path id="Path_969" data-name="Path 969" d="M70.964,44.278a3.761,3.761,0,0,1-2.7,1.927.981.981,0,0,1,.639-1.238c.649-.321,1.122-1.2,2.058-.689" fill="#181818"/>
      <path id="Path_970" data-name="Path 970" d="M72.292,69.961a.7.7,0,0,1-.777.68c-.834-.036-1.13-.569-1.06-1.317.035-.368.111-.856.678-.741a1.38,1.38,0,0,1,1.159,1.378" fill="#181818"/>
      <path id="Path_971" data-name="Path 971" d="M53.875,76.416c.016.515.019,1.093-.566,1.261-.627.18-.927-.235-.921-.834.005-.674.154-1.346.995-1.311.328.014.562.454.492.884" fill="#181818"/>
      <path id="Path_972" data-name="Path 972" d="M78.256,48.681c.332,3.6.251,7.213.25,10.824,0,8.291.3,16.582.522,24.872.109,4.145.174,8.3.507,12.427a4.494,4.494,0,0,1-3.07,5,66.6,66.6,0,0,1-17.271,4.8c-4.889.673-9.765,1.555-14.678,1.907-6.512.466-13.039,1.463-19.591.355-3.817-.646-7.7-.631-11.543-1.2-4.1-.6-7.6-2.37-11.15-4.211A3.64,3.64,0,0,1,.015,99.622c.217-3.064.215-6.145.452-9.208,1.093-14.132,2.161-28.267,3.4-42.386.516-5.884,2.45-11.467,4.339-17.037a57.743,57.743,0,0,0,3.009-16.047,13.055,13.055,0,0,1,.765-3.9c1.262-3.511,1.733-3.446,5.613-3.3A48.5,48.5,0,0,0,28.7,6.9C40.777,4.532,52.891,2.463,65.1.908,66.148.774,67.159.347,68.208.155c2.918-.532,3.867.238,4.111,3.263a3.909,3.909,0,0,1,0,.8c-.853,6.754,1,13.094,2.8,19.483a82.874,82.874,0,0,1,2.932,19.774c.057,1.735.136,3.47.2,5.2M17.7,12.342c-.53.755-1.1,1.519-.2,2.375a.808.808,0,0,0,.615.067,1.8,1.8,0,0,0-.488-2.393c.194-1.376-.193-2.518-1.708-2.627-1.43-.1-2.144.984-2.414,2.251a19.99,19.99,0,0,0-.581,3.961A47.934,47.934,0,0,1,9.8,31.557C7.55,37.973,5.189,44.381,5.052,51.376c-.091,4.666-.924,9.312-1.236,13.98C3.078,76.424,2.478,87.5,1.76,98.571a4.091,4.091,0,0,0,2.513,4.182A35.059,35.059,0,0,0,18.1,106.475c3.08.134,3.267-.177,3.69-3.286.37-2.717-.483-5.3-.649-7.95-.343-5.467.372-10.94-.371-16.4-.957-7.033-1.339-14.117-1.6-21.209A126.3,126.3,0,0,0,16.913,36.11c-.851-4.046-1.505-8.1-1.953-12.225-.4-3.692,1.114-7.166.457-10.868-.337-1.9,1.438-.629,2.286-.675m53.079-.778c-6.325.921-12.337,2.09-18.445,2.635a190.472,190.472,0,0,0-23.406,3.118c-3.457.746-6.986,1.963-10.683,1.4-1.324-.2-1.99.423-1.864,1.846.235,2.661.149,5.338.627,7.991,1.209,6.71,2.7,13.369,2.877,20.246.118,4.543.489,9.086.853,13.627C21.36,70.16,22.8,77.822,22.7,85.609c-.072,5.892.844,11.74.708,17.643-.074,3.234.394,3.408,3.565,4.081,4.014.852,8,.164,12,.054,6.038-.167,11.911-1.754,17.888-2.3a74.518,74.518,0,0,0,17.454-4.206,3.87,3.87,0,0,0,2.934-4.162c-.11-5.614-.014-11.232-.083-16.847-.088-7.219-.592-14.451-.3-21.652a159.9,159.9,0,0,0-.9-21.619c-.805-8.534-4.4-16.464-5.195-25.035M19.613,17.048c3.75.6,7.25-.731,10.67-1.457A157.832,157.832,0,0,1,50.5,12.824a86.415,86.415,0,0,0,16.975-2.813A5.038,5.038,0,0,0,70.823,3.55a1.7,1.7,0,0,0-1.811-1.265c-.935.062-1.871.092-2.8.168C57.547,3.152,49,4.686,40.434,6.048c-6.2.985-12.312,2.5-18.578,3.129-2.629.264-2.753.411-2.246,2.944.322,1.609-.079,3.163,0,4.927" fill="#181818"/>
      <path id="Path_973" data-name="Path 973" d="M12.381,76.3c.092,2.324.366,4.628.236,6.908-.259,4.515-.22,9.025-.157,13.539a2.569,2.569,0,0,1,0,.788c-.209.637-.512,1.276-1.346,1.115-.678-.131-.69-.776-.631-1.269.368-3.04.3-6.112.587-9.142.312-3.324.238-6.632.352-9.947.023-.688-.438-1.663.959-1.992" fill="#181818"/>
      <path id="Path_974" data-name="Path 974" d="M12.2,64.571c-.7-2.49-1.1-4.986-.128-7.474,1.241,2.46.336,4.983.128,7.474" fill="#181818"/>
      <path id="Path_975" data-name="Path 975" d="M20.281,103.187a6.618,6.618,0,0,1-5.321-1.524.719.719,0,0,1-.139-1.027.709.709,0,0,1,1.019-.261c1.273.825,2.906,1.086,4.441,2.812" fill="#181818"/>
      <path id="Path_976" data-name="Path 976" d="M8.58,99.3a4.432,4.432,0,0,1-3.5,2.578c-.358.037-.746-.581-.548-.874A3.822,3.822,0,0,1,8.58,99.3" fill="#181818"/>
    </g>
  </g>
</svg>
