<svg id="Group_440" data-name="Group 440" xmlns="http://www.w3.org/2000/svg" xmlns:xlink="http://www.w3.org/1999/xlink" width="213.829" height="109.373" viewBox="0 0 213.829 109.373">
  <defs>
    <clipPath id="clip-path">
      <rect id="Rectangle_399" data-name="Rectangle 399" width="213.829" height="109.373" fill="none"/>
    </clipPath>
  </defs>
  <g id="Group_439" data-name="Group 439" clip-path="url(#clip-path)">
    <path id="Path_794" data-name="Path 794" d="M132.768,56.754a14.591,14.591,0,0,1-2.418.871c-1.09.169-1.871.383-1.53,1.722.284,1.119.606,1.926,2.131,1.622.989-.2,2.064-.7,3.315.14-1.779,1.174-3.889,1.1-5.645,1.908-.539.249-.924-.4-.981-.941A34.971,34.971,0,0,0,126.2,54.5c-.3-.882.293-1.413,1.1-1.564a12.339,12.339,0,0,1,6.009.075c-1.349,1.3-2.694.6-3.81.847-.7.157-1.613.013-1.581,1.1.032,1.063.752,1.384,1.732,1.374.888-.009,1.82-.714,3.117.431" fill="#181818"/>
    <path id="Path_795" data-name="Path 795" d="M99.688,60.928a3.788,3.788,0,0,1,.4-2.451c1.786-2.609,4.218-2.515,5.739.287a5.518,5.518,0,0,1,.478,5.2c-.754,1.673-2.065,2.884-3.457,2.783A3.593,3.593,0,0,1,99.8,63.5c-.1-.628-.063-1.279-.114-2.573m5.376,1.11c-.074-.48-.1-.91-.211-1.32-.307-1.179-.881-2.45-2.143-2.459-1.634-.013-1.244,1.663-1.555,2.7a4.612,4.612,0,0,0,.106,2.528c.36,1.359,1.5,1.7,2.711.978a2.525,2.525,0,0,0,1.092-2.424" fill="#181818"/>
    <path id="Path_796" data-name="Path 796" d="M139.329,51.229a1.057,1.057,0,0,0-.007.148c-.007.386-.021.773-.042,1.159-.463.119-.92.147-1.341.245a1.965,1.965,0,0,0-.217.056c-.906.274-1.124.787-.871,1.776.133.548.358.794.646.864a1.935,1.935,0,0,0,1.039-.162c.189-.07.379-.147.575-.218-.035.492-.084.976-.126,1.461-.393.133-.779.266-1.165.4.119,1.628.182,2.45.814,2.757-.077.674-.154,1.348-.225,2.03a1.268,1.268,0,0,1-1.4-.33,1.54,1.54,0,0,1-.365-.863,53.168,53.168,0,0,0-1.453-7.237c-.148-.527.049-1.432.421-1.411a7.532,7.532,0,0,0,2.232-.428,6.125,6.125,0,0,1,1.488-.247" fill="#181818"/>
    <path id="Path_797" data-name="Path 797" d="M121.975,53.718a3.08,3.08,0,0,1,.745.117.683.683,0,0,1,.481.783c-.041.381-.253.652-.622.61a4.458,4.458,0,0,0-2.525.181c-.634.3-1.174.63-1.047,1.5.117.809.241,1.66,1.237,1.75a7.982,7.982,0,0,0,.966,0c.6-.02,1.108.207,1.148.9.044.77-.557.9-1.108.927-1.422.061-1.182.885-.784,1.865.289.708.247,1.5-.539,1.678-.84.194-1.034-.635-1.125-1.338-.205-1.608-.879-3.069-1.052-4.718-.338-3.238-.136-3.726,2.741-4.183.315-.05.641-.031,1.484-.064" fill="#181818"/>
    <path id="Path_798" data-name="Path 798" d="M94.863,59.9a1.5,1.5,0,0,0-1.829.876,4.245,4.245,0,0,0,.085,4.3c.769,1.341,1.9,1.019,3.032.358a.879.879,0,0,1,1.339.408c.277.662-.229.962-.733,1.173-3.19,1.331-5.532-.059-5.9-3.49a4.923,4.923,0,0,1,3.058-5.4c.2-.083.381-.2.58-.277a1.477,1.477,0,0,1,1.693.586A1.115,1.115,0,0,1,96.5,59.6a1.072,1.072,0,0,1-.725.5,2.539,2.539,0,0,1-.917-.206" fill="#181818"/>
    <path id="Path_799" data-name="Path 799" d="M113.655,59.806a.946.946,0,0,1-.949.925c-1.695.114-2.021.905-1.205,2.31a2.215,2.215,0,0,1,.3.568c.127.56.062,1.111-.557,1.323a.891.891,0,0,1-1.216-.705c-.23-.931-.364-1.888-.521-2.836-.1-.635-.169-1.277-.269-1.912-.19-1.215-1.167-2.751.029-3.556a7.237,7.237,0,0,1,4.606-1.1c.456.041.827.251.84.773a.786.786,0,0,1-.792.832,5.926,5.926,0,0,0-1.9.06,1.753,1.753,0,0,0-1.411,2.157c.162,1.159,1.064.773,1.764.755a1.564,1.564,0,0,1,1.282.406" fill="#181818"/>
    <path id="Path_800" data-name="Path 800" d="M111.371,30.563a1.7,1.7,0,0,1,1.346,1.823c.23,2.913.24,5.852,1.172,8.67.18.544.126,1.113-.409,1.358a.771.771,0,0,1-1.116-.724c-.259-3.66-1.482-7.245-.993-11.127" fill="#181818"/>
    <path id="Path_801" data-name="Path 801" d="M107.2,44.132c-1.785-1.985-4.331-3.47-4.7-6.873,3.741,1.186,4.476,3.86,4.7,6.873" fill="#181818"/>
    <path id="Path_802" data-name="Path 802" d="M124.078,32.946a17.586,17.586,0,0,1-1.706,8.52,12.006,12.006,0,0,1,1.706-8.52" fill="#181818"/>
    <path id="Path_803" data-name="Path 803" d="M136.085,39.874c-1.471,1.71-2.981,3.5-4.543,5.243A.7.7,0,0,1,130.5,45a.771.771,0,0,1,.006-1.058,33.326,33.326,0,0,0,4.059-4.774.751.751,0,0,1,1.046-.134c.182.124.247.422.471.84" fill="#181818"/>
    <path id="Path_804" data-name="Path 804" d="M116.283,84.111c-.926-2.956-2.244-5.888-.671-9a66.929,66.929,0,0,1,.671,9" fill="#181818"/>
    <path id="Path_805" data-name="Path 805" d="M94.9,42.211c1.651,1.3,2.758,2.947,4.292,4.2a.969.969,0,0,1,.214,1.41.786.786,0,0,1-1.325-.167c-1.143-1.775-3.472-2.822-3.181-5.441" fill="#181818"/>
    <path id="Path_806" data-name="Path 806" d="M137.637,72.393q-.084,1.179-.147,2.359a17.769,17.769,0,0,1-1.411-1.734,2.348,2.348,0,0,0-1.292-.836c-.47-.1-.393-.87.056-1.3a1.02,1.02,0,0,1,1.411-.049l.014.014a7.1,7.1,0,0,1,1.369,1.544" fill="#181818"/>
    <path id="Path_807" data-name="Path 807" d="M126.425,73.868c2.264,2.223,2.619,4.393,3,6.553a11.113,11.113,0,0,1-3-6.553" fill="#181818"/>
    <path id="Path_808" data-name="Path 808" d="M101.761,73.083a6.381,6.381,0,0,1-2.036,3.727c-1.358-2.722-1.358-2.722,2.036-3.727" fill="#181818"/>
    <path id="Path_809" data-name="Path 809" d="M103.142,80.412c.271-2.116-.045-4.4,2.31-6.733-.759,2.789-.745,4.986-2.31,6.733" fill="#181818"/>
    <path id="Path_810" data-name="Path 810" d="M108.872,36.611c1.025-.185,1.2.482,1.425,1.08.275.732.66,1.626-.077,2.137-.661.458-1.142-.212-1.367-.864-.277-.8-.816-1.642.019-2.353" fill="#181818"/>
    <path id="Path_811" data-name="Path 811" d="M116.728,36.581c1.4.551.879,1.792,1.044,2.72.088.494-.156,1.124-.86.981a1.118,1.118,0,0,1-.665-.8c-.108-.972-.442-2.029.481-2.9" fill="#181818"/>
    <path id="Path_812" data-name="Path 812" d="M97.039,51.962c-.782-.552-1.335-.882-1.815-1.3-.626-.543-1.137-1.288-.327-1.952.729-.6,1.091.294,1.443.744a2.213,2.213,0,0,1,.7,2.506" fill="#181818"/>
    <path id="Path_813" data-name="Path 813" d="M109.249,74.577c.387.341.57.433.564.507-.1,1.1.371,2.388-.975,3.083a.362.362,0,0,1-.341-.087c-.787-1.447.183-2.335.752-3.5" fill="#181818"/>
    <path id="Path_814" data-name="Path 814" d="M101,43.423c1.3-.249,1.619.583,2.1,1.158a.713.713,0,0,1,.041,1.026.664.664,0,0,1-1.013-.011A2.882,2.882,0,0,1,101,43.423" fill="#181818"/>
    <path id="Path_815" data-name="Path 815" d="M131.574,72.691c.68.816,1.054,1.073,1.137,1.4.18.709.646,1.758-.535,1.89-.9.1-.69-.918-.741-1.525a14.565,14.565,0,0,1,.139-1.768" fill="#181818"/>
    <path id="Path_816" data-name="Path 816" d="M127.425,39.815c.685.246.79.632.632.994-.293.677-.415,1.625-1.516,1.405-.141-.028-.319-.446-.286-.653a2.327,2.327,0,0,1,1.17-1.746" fill="#181818"/>
    <path id="Path_817" data-name="Path 817" d="M138.808,44.28a3.761,3.761,0,0,1-2.7,1.927.981.981,0,0,1,.639-1.238c.649-.321,1.122-1.2,2.058-.689" fill="#181818"/>
    <path id="Path_818" data-name="Path 818" d="M121.719,76.418c.016.515.019,1.093-.566,1.261-.627.18-.927-.235-.921-.834,0-.674.154-1.346.995-1.311.328.014.562.454.492.884" fill="#181818"/>
    <path id="Path_819" data-name="Path 819" d="M143.743,26.717q-.357-1.516-.779-3.011c-1.8-6.388-3.657-12.733-2.8-19.486a3.752,3.752,0,0,0,0-.8c-.245-3.026-1.193-3.8-4.113-3.264-1.046.2-2.057.617-3.11.758-12.206,1.551-24.322,3.622-36.4,5.987a48.4,48.4,0,0,1-11.112.85c-3.875-.148-4.345-.211-5.609,3.3a13.15,13.15,0,0,0-.765,3.9,57.877,57.877,0,0,1-3.011,16.046c-1.888,5.574-3.819,11.154-4.338,17.036-1.235,14.123-2.309,28.253-3.4,42.391-.239,3.06-.239,6.142-.457,9.2a3.651,3.651,0,0,0,2.218,3.84c3.552,1.839,7.048,3.608,11.154,4.211,3.84.569,7.722.555,11.54,1.2,6.549,1.1,13.077.1,19.591-.358,4.914-.351,9.793-1.236,14.678-1.91a66.76,66.76,0,0,0,10.859-2.428c.723-.225,1.446-.464,2.162-.716-.505-.225-1.011-.457-1.516-.7a5.352,5.352,0,0,1-.758-.45c-.7.218-1.411.429-2.113.632a60.352,60.352,0,0,1-10.964,2.148c-5.981.548-11.849,2.134-17.886,2.3-4,.105-7.988.793-12-.057-3.166-.674-3.636-.849-3.566-4.078.14-5.9-.779-11.757-.7-17.647.091-7.784-1.348-15.45-1.965-23.178-.365-4.541-.737-9.083-.85-13.625-.182-6.879-1.67-13.54-2.878-20.244-.484-2.653-.393-5.334-.631-7.995-.127-1.425.54-2.042,1.867-1.846,3.7.562,7.223-.66,10.683-1.4a191.246,191.246,0,0,1,23.4-3.116c6.107-.548,12.123-1.713,18.447-2.64.59,6.388,2.731,12.411,4.121,18.595.245,1.088.47,2.19.659,3.3.218-.632.436-1.264.66-1.9.148-.422.295-.843.428-1.264-.217-1.2-.47-2.393-.751-3.58M85.959,14.784a.781.781,0,0,1-.61-.063c-.878-.828-.365-1.572.147-2.309l-.021-.021c0-.014.007-.035.007-.05-.87-.007-2.555-1.172-2.218.681.653,3.7-.863,7.174-.463,10.866a123.351,123.351,0,0,0,1.958,12.221,126.576,126.576,0,0,1,2.253,21.522c.26,7.089.639,14.179,1.6,21.213.744,5.454.028,10.929.372,16.4.161,2.653,1.018,5.236.646,7.953-.422,3.1-.611,3.418-3.693,3.285a35.242,35.242,0,0,1-13.821-3.72A4.107,4.107,0,0,1,69.6,98.575c.716-11.07,1.32-22.146,2.057-33.216.309-4.668,1.144-9.315,1.235-13.983.134-6.991,2.5-13.4,4.752-19.815a47.928,47.928,0,0,0,3.124-15.583,19.584,19.584,0,0,1,.583-3.959c.266-1.271.982-2.359,2.414-2.254,1.488.113,1.889,1.222,1.713,2.576h.063c-.014.022-.035.05-.049.071a1.79,1.79,0,0,1,.463,2.372m49.361-4.773a86.238,86.238,0,0,1-16.973,2.815,159,159,0,0,0-20.223,2.765c-3.418.73-6.914,2.064-10.669,1.461-.078-1.769.322-3.321,0-4.928-.506-2.534-.387-2.682,2.246-2.948,6.261-.625,12.375-2.141,18.573-3.124,8.571-1.362,17.113-2.9,25.775-3.594.934-.077,1.875-.105,2.808-.168a1.7,1.7,0,0,1,1.811,1.263,5.036,5.036,0,0,1-3.348,6.458" fill="#181818"/>
    <path id="Path_820" data-name="Path 820" d="M80.225,76.3c.091,2.324.365,4.628.235,6.908-.259,4.515-.219,9.025-.157,13.539a2.538,2.538,0,0,1,0,.788c-.209.637-.512,1.276-1.346,1.115-.678-.131-.689-.776-.631-1.269.368-3.04.3-6.112.587-9.142.313-3.324.238-6.632.352-9.947.023-.688-.438-1.663.96-1.992" fill="#181818"/>
    <path id="Path_821" data-name="Path 821" d="M80.04,64.574c-.7-2.49-1.1-4.986-.128-7.474,1.241,2.46.336,4.983.128,7.474" fill="#181818"/>
    <path id="Path_822" data-name="Path 822" d="M88.126,103.189a6.621,6.621,0,0,1-5.322-1.524.719.719,0,0,1-.139-1.027.71.71,0,0,1,1.02-.261c1.272.825,2.9,1.086,4.441,2.812" fill="#181818"/>
    <path id="Path_823" data-name="Path 823" d="M76.424,99.3a4.432,4.432,0,0,1-3.5,2.578c-.358.037-.746-.581-.548-.874a3.822,3.822,0,0,1,4.047-1.7" fill="#181818"/>
    <path id="Path_824" data-name="Path 824" d="M64.925,56.754a14.591,14.591,0,0,1-2.418.871c-1.09.169-1.871.383-1.53,1.722.284,1.119.606,1.926,2.131,1.622.989-.2,2.064-.7,3.315.14-1.779,1.174-3.889,1.1-5.645,1.908-.539.249-.924-.4-.981-.941a34.971,34.971,0,0,0-1.443-7.58c-.3-.882.293-1.413,1.1-1.564a12.339,12.339,0,0,1,6.009.075c-1.349,1.3-2.694.6-3.81.847-.7.157-1.613.013-1.581,1.1.032,1.063.752,1.384,1.732,1.374.888-.009,1.82-.714,3.117.431" fill="#181818"/>
    <path id="Path_825" data-name="Path 825" d="M31.845,60.928a3.788,3.788,0,0,1,.4-2.451c1.786-2.609,4.218-2.515,5.739.287a5.518,5.518,0,0,1,.478,5.2C37.7,65.64,36.393,66.851,35,66.75A3.593,3.593,0,0,1,31.959,63.5c-.1-.628-.063-1.279-.114-2.573m5.376,1.11c-.074-.48-.1-.91-.211-1.32-.307-1.179-.881-2.45-2.143-2.459-1.634-.013-1.244,1.663-1.555,2.7a4.612,4.612,0,0,0,.106,2.528c.36,1.359,1.5,1.7,2.711.978a2.525,2.525,0,0,0,1.092-2.424" fill="#181818"/>
    <path id="Path_826" data-name="Path 826" d="M71.485,51.229a1.054,1.054,0,0,0-.007.148c-.007.386-.021.773-.042,1.159-.463.119-.92.147-1.341.245a1.964,1.964,0,0,0-.217.056c-.906.274-1.124.787-.871,1.776.134.548.358.794.646.864a1.935,1.935,0,0,0,1.039-.162c.189-.07.379-.147.575-.218-.035.492-.084.976-.126,1.461-.393.133-.779.266-1.165.4.119,1.628.182,2.45.814,2.757-.077.674-.154,1.348-.225,2.03a1.268,1.268,0,0,1-1.4-.33,1.54,1.54,0,0,1-.365-.863,53.165,53.165,0,0,0-1.453-7.237c-.148-.527.049-1.432.421-1.411A7.532,7.532,0,0,0,70,51.476a6.125,6.125,0,0,1,1.488-.247" fill="#181818"/>
    <path id="Path_827" data-name="Path 827" d="M54.131,53.718a3.09,3.09,0,0,1,.746.117.682.682,0,0,1,.48.783c-.041.381-.253.652-.621.61a4.458,4.458,0,0,0-2.525.181c-.635.3-1.175.63-1.048,1.5.118.809.242,1.66,1.238,1.75a7.982,7.982,0,0,0,.966,0c.6-.02,1.108.207,1.148.9.044.77-.557.9-1.108.927-1.422.061-1.182.885-.784,1.865.288.708.246,1.5-.539,1.678-.841.194-1.035-.635-1.125-1.338-.2-1.608-.88-3.069-1.052-4.718-.338-3.238-.137-3.726,2.74-4.183.316-.05.642-.031,1.484-.064" fill="#181818"/>
    <path id="Path_828" data-name="Path 828" d="M27.02,59.9a1.5,1.5,0,0,0-1.829.876,4.245,4.245,0,0,0,.085,4.3c.769,1.341,1.9,1.019,3.032.358a.879.879,0,0,1,1.339.408c.277.662-.229.962-.733,1.173-3.19,1.331-5.532-.059-5.9-3.49a4.923,4.923,0,0,1,3.058-5.4c.2-.083.381-.2.58-.277a1.477,1.477,0,0,1,1.693.586,1.115,1.115,0,0,1,.321,1.174,1.072,1.072,0,0,1-.725.5,2.539,2.539,0,0,1-.917-.206" fill="#181818"/>
    <path id="Path_829" data-name="Path 829" d="M45.812,59.806a.946.946,0,0,1-.949.925c-1.695.114-2.021.905-1.2,2.31a2.215,2.215,0,0,1,.3.568c.127.56.062,1.111-.557,1.323a.891.891,0,0,1-1.216-.705c-.23-.931-.364-1.888-.521-2.836-.1-.635-.169-1.277-.269-1.912-.19-1.215-1.167-2.751.029-3.556a7.237,7.237,0,0,1,4.606-1.1c.456.041.827.251.84.773a.786.786,0,0,1-.792.832,5.926,5.926,0,0,0-1.9.06,1.753,1.753,0,0,0-1.411,2.157c.162,1.159,1.064.773,1.764.755a1.564,1.564,0,0,1,1.282.406" fill="#181818"/>
    <path id="Path_830" data-name="Path 830" d="M43.528,30.563a1.7,1.7,0,0,1,1.346,1.823c.23,2.913.24,5.852,1.172,8.67.18.544.126,1.113-.409,1.358a.771.771,0,0,1-1.116-.724c-.259-3.66-1.482-7.245-.993-11.127" fill="#181818"/>
    <path id="Path_831" data-name="Path 831" d="M39.357,44.132c-1.785-1.985-4.331-3.47-4.7-6.873,3.741,1.186,4.476,3.86,4.7,6.873" fill="#181818"/>
    <path id="Path_832" data-name="Path 832" d="M56.235,32.946a17.586,17.586,0,0,1-1.706,8.52,12.006,12.006,0,0,1,1.706-8.52" fill="#181818"/>
    <path id="Path_833" data-name="Path 833" d="M68.242,39.874c-1.471,1.71-2.981,3.5-4.543,5.243A.7.7,0,0,1,62.66,45a.771.771,0,0,1,.006-1.058,33.326,33.326,0,0,0,4.059-4.774.751.751,0,0,1,1.046-.134c.182.124.247.422.471.84" fill="#181818"/>
    <path id="Path_834" data-name="Path 834" d="M48.44,84.111c-.926-2.956-2.244-5.888-.671-9a66.93,66.93,0,0,1,.671,9" fill="#181818"/>
    <path id="Path_835" data-name="Path 835" d="M27.062,42.211c1.651,1.3,2.758,2.947,4.292,4.2a.969.969,0,0,1,.214,1.41.786.786,0,0,1-1.325-.167c-1.143-1.775-3.472-2.822-3.181-5.441" fill="#181818"/>
    <path id="Path_836" data-name="Path 836" d="M69.794,72.393q-.084,1.179-.147,2.359a17.769,17.769,0,0,1-1.411-1.734,2.348,2.348,0,0,0-1.292-.836c-.47-.1-.393-.87.056-1.3a1.02,1.02,0,0,1,1.411-.049l.014.014a7.105,7.105,0,0,1,1.369,1.544" fill="#181818"/>
    <path id="Path_837" data-name="Path 837" d="M58.582,73.868c2.264,2.223,2.619,4.393,3,6.553a11.113,11.113,0,0,1-3-6.553" fill="#181818"/>
    <path id="Path_838" data-name="Path 838" d="M33.918,73.083a6.381,6.381,0,0,1-2.036,3.727c-1.358-2.722-1.358-2.722,2.036-3.727" fill="#181818"/>
    <path id="Path_839" data-name="Path 839" d="M35.3,80.412c.271-2.116-.045-4.4,2.31-6.733-.759,2.789-.745,4.986-2.31,6.733" fill="#181818"/>
    <path id="Path_840" data-name="Path 840" d="M41.029,36.611c1.025-.185,1.2.482,1.425,1.08.275.732.66,1.626-.077,2.137-.661.458-1.142-.212-1.367-.864-.277-.8-.816-1.642.019-2.353" fill="#181818"/>
    <path id="Path_841" data-name="Path 841" d="M48.885,36.581c1.4.551.879,1.792,1.044,2.72.088.494-.156,1.124-.86.981a1.118,1.118,0,0,1-.665-.8c-.108-.972-.442-2.029.481-2.9" fill="#181818"/>
    <path id="Path_842" data-name="Path 842" d="M29.2,51.962c-.782-.552-1.335-.882-1.815-1.3-.626-.543-1.137-1.288-.327-1.952.729-.6,1.091.294,1.443.744a2.213,2.213,0,0,1,.7,2.506" fill="#181818"/>
    <path id="Path_843" data-name="Path 843" d="M41.406,74.577c.387.341.57.433.564.507-.1,1.1.371,2.388-.975,3.083a.362.362,0,0,1-.341-.087c-.787-1.447.183-2.335.752-3.5" fill="#181818"/>
    <path id="Path_844" data-name="Path 844" d="M33.162,43.423c1.3-.249,1.619.583,2.1,1.158a.713.713,0,0,1,.041,1.026A.664.664,0,0,1,34.29,45.6a2.882,2.882,0,0,1-1.128-2.173" fill="#181818"/>
    <path id="Path_845" data-name="Path 845" d="M63.731,72.691c.68.816,1.054,1.073,1.137,1.4.18.709.646,1.758-.535,1.89-.9.1-.69-.918-.741-1.525a14.565,14.565,0,0,1,.139-1.768" fill="#181818"/>
    <path id="Path_846" data-name="Path 846" d="M59.582,39.815c.685.246.79.632.632.994-.293.677-.415,1.625-1.516,1.405-.141-.028-.319-.446-.286-.653a2.327,2.327,0,0,1,1.17-1.746" fill="#181818"/>
    <path id="Path_847" data-name="Path 847" d="M70.965,44.28a3.761,3.761,0,0,1-2.7,1.927.981.981,0,0,1,.639-1.238c.649-.321,1.122-1.2,2.058-.689" fill="#181818"/>
    <path id="Path_848" data-name="Path 848" d="M53.876,76.418c.016.515.019,1.093-.566,1.261-.627.18-.927-.235-.921-.834.005-.674.154-1.346.995-1.311.328.014.562.454.492.884" fill="#181818"/>
    <path id="Path_849" data-name="Path 849" d="M75.9,26.717q-.357-1.516-.779-3.011c-1.8-6.388-3.657-12.733-2.8-19.486a3.753,3.753,0,0,0,0-.8C72.075.394,71.127-.378,68.207.156c-1.046.2-2.057.617-3.11.758C52.891,2.465,40.775,4.536,28.7,6.9a48.4,48.4,0,0,1-11.112.85c-3.875-.148-4.345-.211-5.609,3.3a13.149,13.149,0,0,0-.765,3.9A57.877,57.877,0,0,1,8.2,30.992C6.317,36.566,4.386,42.146,3.867,48.028,2.632,62.151,1.558,76.281.47,90.419c-.239,3.06-.239,6.142-.457,9.2a3.651,3.651,0,0,0,2.218,3.84c3.552,1.839,7.048,3.608,11.154,4.211,3.84.569,7.722.555,11.54,1.2,6.549,1.1,13.077.1,19.591-.358,4.914-.351,9.793-1.236,14.678-1.91a66.76,66.76,0,0,0,10.859-2.428c.723-.225,1.446-.464,2.162-.716-.5-.225-1.011-.457-1.516-.7a5.352,5.352,0,0,1-.758-.45c-.7.218-1.411.429-2.113.632a60.352,60.352,0,0,1-10.964,2.148c-5.981.548-11.849,2.134-17.886,2.3-4,.105-7.988.793-12-.057-3.166-.674-3.636-.849-3.566-4.078.14-5.9-.779-11.757-.7-17.647.091-7.784-1.348-15.45-1.965-23.178-.365-4.541-.737-9.083-.85-13.625-.182-6.879-1.67-13.54-2.878-20.244-.484-2.653-.393-5.334-.631-7.995-.127-1.425.54-2.042,1.867-1.846,3.7.562,7.223-.66,10.683-1.4a191.246,191.246,0,0,1,23.4-3.116c6.107-.548,12.123-1.713,18.447-2.64.59,6.388,2.731,12.411,4.121,18.595.245,1.088.47,2.19.659,3.3.218-.632.436-1.264.66-1.9.148-.422.295-.843.428-1.264-.217-1.2-.47-2.393-.751-3.58M18.116,14.784a.781.781,0,0,1-.61-.063c-.878-.828-.365-1.572.147-2.309l-.021-.021c0-.014.007-.035.007-.05-.87-.007-2.555-1.172-2.218.681.653,3.7-.863,7.174-.463,10.866a123.352,123.352,0,0,0,1.958,12.221,126.576,126.576,0,0,1,2.253,21.522c.26,7.089.639,14.179,1.6,21.213.744,5.454.028,10.929.372,16.4.161,2.653,1.018,5.236.646,7.953-.422,3.1-.611,3.418-3.693,3.285a35.242,35.242,0,0,1-13.821-3.72,4.107,4.107,0,0,1-2.513-4.184c.716-11.07,1.32-22.146,2.057-33.216.309-4.668,1.144-9.315,1.235-13.983.134-6.991,2.5-13.4,4.752-19.815a47.928,47.928,0,0,0,3.124-15.583,19.585,19.585,0,0,1,.583-3.959c.266-1.271.982-2.359,2.414-2.254,1.488.113,1.889,1.222,1.713,2.576H17.7c-.014.022-.035.05-.049.071a1.79,1.79,0,0,1,.463,2.372m49.361-4.773A86.238,86.238,0,0,1,50.5,12.826a159,159,0,0,0-20.223,2.765c-3.418.73-6.914,2.064-10.669,1.461-.078-1.769.322-3.321,0-4.928-.506-2.534-.387-2.682,2.246-2.948,6.261-.625,12.375-2.141,18.573-3.124C49,4.69,57.544,3.153,66.206,2.458c.934-.077,1.875-.105,2.808-.168a1.7,1.7,0,0,1,1.811,1.263,5.036,5.036,0,0,1-3.348,6.458" fill="#181818"/>
    <path id="Path_850" data-name="Path 850" d="M12.382,76.3c.091,2.324.365,4.628.235,6.908-.259,4.515-.219,9.025-.157,13.539a2.569,2.569,0,0,1,0,.788c-.208.637-.512,1.276-1.345,1.115-.679-.131-.691-.776-.632-1.269.368-3.04.3-6.112.587-9.142.312-3.324.239-6.632.352-9.947.023-.688-.438-1.663.96-1.992" fill="#181818"/>
    <path id="Path_851" data-name="Path 851" d="M12.2,64.574c-.7-2.49-1.1-4.986-.128-7.474,1.241,2.46.336,4.983.128,7.474" fill="#181818"/>
    <path id="Path_852" data-name="Path 852" d="M20.282,103.189a6.618,6.618,0,0,1-5.321-1.524.718.718,0,0,1-.139-1.027.709.709,0,0,1,1.019-.261c1.273.825,2.906,1.086,4.441,2.812" fill="#181818"/>
    <path id="Path_853" data-name="Path 853" d="M8.581,99.3a4.432,4.432,0,0,1-3.5,2.578c-.358.037-.746-.581-.548-.874a3.822,3.822,0,0,1,4.047-1.7" fill="#181818"/>
    <path id="Path_854" data-name="Path 854" d="M199.191,56.754a14.59,14.59,0,0,1-2.418.871c-1.09.169-1.871.383-1.53,1.722.284,1.119.606,1.926,2.131,1.622.989-.2,2.064-.7,3.315.14-1.779,1.174-3.889,1.1-5.645,1.908-.539.249-.924-.4-.981-.941a34.971,34.971,0,0,0-1.443-7.58c-.3-.882.293-1.413,1.1-1.564a12.339,12.339,0,0,1,6.009.075c-1.349,1.3-2.694.6-3.81.847-.7.157-1.613.013-1.581,1.1.032,1.063.752,1.384,1.732,1.374.888-.009,1.82-.714,3.117.431" fill="#181818"/>
    <path id="Path_855" data-name="Path 855" d="M166.11,60.928a3.788,3.788,0,0,1,.4-2.451c1.786-2.609,4.218-2.515,5.739.287a5.518,5.518,0,0,1,.478,5.2c-.754,1.673-2.065,2.884-3.457,2.783a3.593,3.593,0,0,1-3.042-3.249c-.1-.628-.063-1.279-.114-2.573m5.376,1.11c-.074-.48-.1-.91-.211-1.32-.307-1.179-.881-2.45-2.143-2.459-1.634-.013-1.244,1.663-1.555,2.7a4.612,4.612,0,0,0,.106,2.528c.36,1.359,1.5,1.7,2.711.978a2.525,2.525,0,0,0,1.092-2.424" fill="#181818"/>
    <path id="Path_856" data-name="Path 856" d="M207.271,51.54c-.956,1.163-2.008,1.027-2.909,1.237-1.087.255-1.361.767-1.092,1.837.281,1.119.917.971,1.691.7a4.77,4.77,0,0,1,1.215-.366,1.066,1.066,0,0,1,.772.4c.233.308-.005.64-.3.759-.789.317-1.6.572-2.408.853.246,3.308.246,3.308,5.282,2.349.332.674-.054.934-.622,1.118-1.324.428-2.636.893-3.966,1.3a1.315,1.315,0,0,1-1.871-1.17,52.39,52.39,0,0,0-1.454-7.235c-.15-.526.051-1.432.42-1.415,1.647.077,3.184-1.258,5.243-.361" fill="#181818"/>
    <path id="Path_857" data-name="Path 857" d="M188.4,53.718a3.09,3.09,0,0,1,.746.117.682.682,0,0,1,.48.783c-.041.381-.253.652-.621.61a4.458,4.458,0,0,0-2.525.181c-.635.3-1.175.63-1.048,1.5.118.809.242,1.66,1.238,1.75a7.982,7.982,0,0,0,.966,0c.6-.02,1.108.207,1.148.9.044.77-.557.9-1.108.927-1.422.061-1.182.885-.784,1.865.288.708.246,1.5-.539,1.678-.841.194-1.035-.635-1.125-1.338-.205-1.608-.88-3.069-1.052-4.718-.338-3.238-.137-3.726,2.74-4.183.316-.05.642-.031,1.484-.064" fill="#181818"/>
    <path id="Path_858" data-name="Path 858" d="M161.286,59.9a1.5,1.5,0,0,0-1.829.876,4.245,4.245,0,0,0,.085,4.3c.769,1.341,1.9,1.019,3.032.358a.879.879,0,0,1,1.339.408c.277.662-.229.962-.733,1.173-3.19,1.331-5.532-.059-5.9-3.49a4.923,4.923,0,0,1,3.058-5.4c.2-.083.381-.2.58-.277a1.477,1.477,0,0,1,1.693.586,1.115,1.115,0,0,1,.321,1.174,1.072,1.072,0,0,1-.725.5,2.539,2.539,0,0,1-.917-.206" fill="#181818"/>
    <path id="Path_859" data-name="Path 859" d="M180.077,59.806a.946.946,0,0,1-.949.925c-1.7.114-2.021.905-1.205,2.31a2.215,2.215,0,0,1,.3.568c.127.56.062,1.111-.557,1.323a.891.891,0,0,1-1.216-.705c-.23-.931-.364-1.888-.521-2.836-.1-.635-.169-1.277-.269-1.912-.19-1.215-1.167-2.751.029-3.556a7.237,7.237,0,0,1,4.606-1.1c.456.041.827.251.84.773a.786.786,0,0,1-.792.832,5.926,5.926,0,0,0-1.9.06,1.753,1.753,0,0,0-1.411,2.157c.162,1.159,1.064.773,1.764.755a1.564,1.564,0,0,1,1.282.406" fill="#181818"/>
    <path id="Path_860" data-name="Path 860" d="M177.794,30.563a1.7,1.7,0,0,1,1.346,1.823c.23,2.913.24,5.852,1.172,8.67.18.544.126,1.113-.409,1.358a.771.771,0,0,1-1.116-.724c-.258-3.66-1.482-7.245-.993-11.127" fill="#181818"/>
    <path id="Path_861" data-name="Path 861" d="M173.623,44.132c-1.785-1.985-4.331-3.47-4.7-6.873,3.741,1.186,4.476,3.86,4.7,6.873" fill="#181818"/>
    <path id="Path_862" data-name="Path 862" d="M190.5,32.946a17.575,17.575,0,0,1-1.707,8.52,12.012,12.012,0,0,1,1.707-8.52" fill="#181818"/>
    <path id="Path_863" data-name="Path 863" d="M202.508,39.874c-1.471,1.71-2.981,3.5-4.543,5.243A.7.7,0,0,1,196.926,45a.771.771,0,0,1,.006-1.058,33.327,33.327,0,0,0,4.059-4.774.751.751,0,0,1,1.046-.134c.182.124.247.422.471.84" fill="#181818"/>
    <path id="Path_864" data-name="Path 864" d="M182.706,84.111c-.926-2.956-2.244-5.888-.671-9a67.093,67.093,0,0,1,.671,9" fill="#181818"/>
    <path id="Path_865" data-name="Path 865" d="M161.327,42.211c1.651,1.3,2.758,2.947,4.292,4.2a.969.969,0,0,1,.214,1.41.786.786,0,0,1-1.325-.167c-1.143-1.775-3.472-2.822-3.181-5.441" fill="#181818"/>
    <path id="Path_866" data-name="Path 866" d="M205.392,75.519c-2.318-.453-2.339-2.927-4.184-3.335-.47-.1-.395-.874.057-1.3a1.006,1.006,0,0,1,1.425-.033,8.836,8.836,0,0,1,2.7,4.667" fill="#181818"/>
    <path id="Path_867" data-name="Path 867" d="M192.848,73.868c2.264,2.223,2.619,4.393,3,6.553a11.113,11.113,0,0,1-3-6.553" fill="#181818"/>
    <path id="Path_868" data-name="Path 868" d="M168.184,73.083a6.381,6.381,0,0,1-2.036,3.727c-1.358-2.722-1.358-2.722,2.036-3.727" fill="#181818"/>
    <path id="Path_869" data-name="Path 869" d="M169.565,80.412c.271-2.116-.045-4.4,2.31-6.733-.759,2.789-.745,4.986-2.31,6.733" fill="#181818"/>
    <path id="Path_870" data-name="Path 870" d="M175.295,36.611c1.025-.185,1.2.482,1.425,1.08.275.732.66,1.626-.077,2.137-.661.458-1.142-.212-1.367-.864-.277-.8-.816-1.642.019-2.353" fill="#181818"/>
    <path id="Path_871" data-name="Path 871" d="M183.151,36.581c1.4.551.879,1.792,1.044,2.72.088.494-.156,1.124-.86.981a1.118,1.118,0,0,1-.665-.8c-.108-.972-.442-2.029.481-2.9" fill="#181818"/>
    <path id="Path_872" data-name="Path 872" d="M163.462,51.962c-.783-.552-1.336-.882-1.816-1.3-.626-.543-1.137-1.288-.327-1.952.729-.6,1.091.294,1.443.744a2.213,2.213,0,0,1,.7,2.506" fill="#181818"/>
    <path id="Path_873" data-name="Path 873" d="M175.671,74.577c.387.341.57.433.564.507-.1,1.1.371,2.388-.975,3.083a.362.362,0,0,1-.341-.087c-.787-1.447.183-2.335.752-3.5" fill="#181818"/>
    <path id="Path_874" data-name="Path 874" d="M167.428,43.423c1.3-.249,1.618.583,2.1,1.158a.712.712,0,0,1,.041,1.026.664.664,0,0,1-1.013-.011,2.884,2.884,0,0,1-1.127-2.173" fill="#181818"/>
    <path id="Path_875" data-name="Path 875" d="M198,72.691c.68.816,1.054,1.073,1.137,1.4.18.709.646,1.758-.535,1.89-.9.1-.69-.918-.741-1.525A14.564,14.564,0,0,1,198,72.691" fill="#181818"/>
    <path id="Path_876" data-name="Path 876" d="M193.847,39.815c.685.246.79.632.632.994-.293.677-.415,1.625-1.516,1.405-.141-.028-.319-.446-.286-.653a2.327,2.327,0,0,1,1.17-1.746" fill="#181818"/>
    <path id="Path_877" data-name="Path 877" d="M205.23,44.28a3.761,3.761,0,0,1-2.7,1.927.981.981,0,0,1,.639-1.238c.649-.321,1.122-1.2,2.058-.689" fill="#181818"/>
    <path id="Path_878" data-name="Path 878" d="M206.558,69.963a.7.7,0,0,1-.777.68c-.834-.036-1.13-.569-1.06-1.317.035-.368.111-.856.678-.741a1.38,1.38,0,0,1,1.159,1.378" fill="#181818"/>
    <path id="Path_879" data-name="Path 879" d="M188.141,76.418c.016.515.019,1.093-.566,1.261-.627.18-.927-.235-.921-.834,0-.674.154-1.346.995-1.311.328.014.562.454.492.884" fill="#181818"/>
    <path id="Path_880" data-name="Path 880" d="M137.939,52.781a2.044,2.044,0,0,0-.218.056c-.077.878-.154,1.755-.224,2.639a1.934,1.934,0,0,0,1.039-.161c.189-.07.379-.147.575-.218.077-.849.134-1.705.169-2.562-.464.12-.92.148-1.341.246m-.119,4.177c.119,1.628.182,2.449.814,2.758.119-1.053.239-2.106.351-3.159-.393.134-.779.267-1.165.4m.119-4.177a2.044,2.044,0,0,0-.218.056c-.077.878-.154,1.755-.224,2.639a1.934,1.934,0,0,0,1.039-.161c.189-.07.379-.147.575-.218.077-.849.134-1.705.169-2.562-.464.12-.92.148-1.341.246m.7,6.935c.119-1.053.239-2.106.351-3.159-.393.134-.779.267-1.165.4.119,1.628.182,2.449.814,2.758M213.8,96.807c-.337-4.128-.4-8.283-.512-12.425-.218-8.289-.527-16.586-.52-24.876,0-3.608.084-7.216-.253-10.824-.063-1.734-.147-3.468-.2-5.2a82.875,82.875,0,0,0-2.927-19.773c-1.8-6.388-3.657-12.734-2.808-19.486a3.826,3.826,0,0,0,.007-.8C206.343.4,205.4-.377,202.476.156c-1.053.2-2.064.618-3.117.758-12.2,1.552-24.315,3.622-36.389,5.988a48.33,48.33,0,0,1-11.111.849c-3.882-.147-4.353-.21-5.616,3.3a13.143,13.143,0,0,0-.765,3.9,57.722,57.722,0,0,1-1.734,11.772q-.442,1.726-1,3.439c-.084.281-.182.555-.273.836a95.066,95.066,0,0,0-3.812,13.217c-.021.12-.042.232-.063.351-.2,1.144-.365,2.3-.463,3.468s-.2,2.3-.295,3.446c-.042.45-.085.906-.12,1.362-.077.878-.154,1.755-.224,2.639q-.253,2.97-.492,5.939-.389,4.707-.751,9.42c-.063.723-.119,1.453-.175,2.183q-.684,8.7-1.348,17.4c-.231,3.061-.231,6.142-.449,9.2a3.515,3.515,0,0,0,1.39,3.32,5.521,5.521,0,0,0,.828.519c.463.239.927.478,1.4.716a31.534,31.534,0,0,0,9.75,3.5c3.847.569,7.728.554,11.547,1.2,6.549,1.1,13.077.106,19.591-.358,4.914-.351,9.785-1.235,14.678-1.909a66.569,66.569,0,0,0,17.267-4.8,4.491,4.491,0,0,0,3.075-5M156.119,9.176c6.269-.624,12.383-2.141,18.581-3.123,8.57-1.362,17.113-2.9,25.775-3.594.934-.077,1.867-.106,2.8-.169a1.693,1.693,0,0,1,1.811,1.264,5.034,5.034,0,0,1-3.341,6.458,86.318,86.318,0,0,1-16.98,2.814,158.87,158.87,0,0,0-20.216,2.766c-3.419.73-6.922,2.064-10.67,1.46-.084-1.769.316-3.32,0-4.928-.512-2.534-.386-2.681,2.239-2.948m-.063,94.019c-.428,3.1-.611,3.418-3.692,3.285a34.174,34.174,0,0,1-12.3-3.019c-.506-.224-1.011-.456-1.516-.7a5.255,5.255,0,0,1-.758-.449,3.967,3.967,0,0,1-1.755-3.734c.512-7.939.968-15.885,1.46-23.824q.063-1.179.147-2.359c.141-2.344.3-4.689.449-7.033.078-1.208.2-2.415.323-3.615.071-.681.148-1.355.225-2.029.119-1.053.239-2.106.351-3.159.042-.484.091-.968.126-1.46.077-.849.134-1.705.169-2.562q.031-.579.042-1.158a1.035,1.035,0,0,1,.007-.147c.14-6.248,2.064-12.032,4.078-17.773.218-.632.435-1.264.66-1.9.147-.421.295-.842.428-1.263a46.185,46.185,0,0,0,2.7-14.32,20.635,20.635,0,0,1,.582-3.959c.274-1.27.983-2.358,2.415-2.253,1.495.112,1.895,1.221,1.72,2.576h.063c-.014.021-.035.049-.049.07a1.792,1.792,0,0,1,.463,2.373.8.8,0,0,1-.618-.063c-.87-.829-.365-1.573.155-2.31l-.021-.021c0-.014.007-.035.007-.049-.871-.007-2.555-1.172-2.225.681.659,3.7-.857,7.174-.457,10.866.45,4.12,1.1,8.178,1.952,12.221a125.967,125.967,0,0,1,2.26,21.521c.26,7.09.639,14.18,1.593,21.213.744,5.454.028,10.929.372,16.4.169,2.653,1.018,5.236.653,7.953m52.527-2.317a74.515,74.515,0,0,1-17.451,4.212c-5.98.547-11.849,2.134-17.892,2.3-3.994.105-7.981.793-12-.056-3.173-.674-3.644-.849-3.566-4.078.133-5.9-.78-11.758-.709-17.647.1-7.785-1.341-15.45-1.959-23.178-.365-4.542-.737-9.083-.856-13.625-.176-6.879-1.664-13.54-2.878-20.244-.477-2.653-.393-5.335-.625-7.995-.126-1.425.541-2.043,1.86-1.846,3.7.561,7.23-.66,10.684-1.4A191.14,191.14,0,0,1,186.6,14.2c6.107-.547,12.122-1.712,18.447-2.639.793,8.578,4.387,16.5,5.194,25.038a159.923,159.923,0,0,1,.892,21.62c-.295,7.2.21,14.432.294,21.648.071,5.616-.021,11.238.085,16.854a3.869,3.869,0,0,1-2.934,4.155M137.82,56.958c.119,1.628.182,2.449.814,2.758.119-1.053.239-2.106.351-3.159-.393.134-.779.267-1.165.4m.119-4.177a2.044,2.044,0,0,0-.218.056c-.077.878-.154,1.755-.224,2.639a1.934,1.934,0,0,0,1.039-.161c.189-.07.379-.147.575-.218.077-.849.134-1.705.169-2.562-.464.12-.92.148-1.341.246m-.119,4.177c.119,1.628.182,2.449.814,2.758.119-1.053.239-2.106.351-3.159-.393.134-.779.267-1.165.4m.119-4.177a2.044,2.044,0,0,0-.218.056c-.077.878-.154,1.755-.224,2.639a1.934,1.934,0,0,0,1.039-.161c.189-.07.379-.147.575-.218.077-.849.134-1.705.169-2.562-.464.12-.92.148-1.341.246" fill="#181818"/>
    <path id="Path_881" data-name="Path 881" d="M145.7,75.691c.066,2.325.314,4.632.159,6.91-.308,4.512-.321,9.022-.308,13.537a2.522,2.522,0,0,1-.009.787c-.215.636-.526,1.27-1.358,1.1-.676-.138-.681-.783-.616-1.276.4-3.035.369-6.108.688-9.135.349-3.319.312-6.628.463-9.941.03-.689-.42-1.668.981-1.982" fill="#181818"/>
    <path id="Path_882" data-name="Path 882" d="M145.649,63.964c-.67-2.5-1.042-5-.045-7.475,1.214,2.473.281,4.986.045,7.475" fill="#181818"/>
    <path id="Path_883" data-name="Path 883" d="M153.3,102.667a6.619,6.619,0,0,1-5.3-1.583.719.719,0,0,1-.127-1.028.709.709,0,0,1,1.022-.25c1.263.839,2.893,1.118,4.409,2.861" fill="#181818"/>
    <path id="Path_884" data-name="Path 884" d="M141.648,98.652a4.431,4.431,0,0,1-3.528,2.539c-.358.033-.739-.589-.538-.88a3.822,3.822,0,0,1,4.066-1.659" fill="#181818"/>
  </g>
</svg>
