<svg xmlns="http://www.w3.org/2000/svg" xmlns:xlink="http://www.w3.org/1999/xlink" width="22.451" height="21.476" viewBox="0 0 22.451 21.476">
  <defs>
    <clipPath id="clip-path">
      <rect id="Rectangle_408" data-name="Rectangle 408" width="22.451" height="21.476" fill="none"/>
    </clipPath>
  </defs>
  <g id="Group_466" data-name="Group 466" transform="translate(0 0)">
    <g id="Group_465" data-name="Group 465" transform="translate(0 0)" clip-path="url(#clip-path)">
      <path id="Path_1065" data-name="Path 1065" d="M22.179,9.949c-.508-3.083-1.69-6.043-4.331-7.765a11.468,11.468,0,0,0-12.166-.8A10.044,10.044,0,0,0,0,10.316c-.032,5.854,2.284,9.148,7.036,10.633,3.8,1.183,7.3.275,10.638-1.69,4.423-2.6,5.324-4.3,4.5-9.31m-4.055,7.933a19.026,19.026,0,0,1-6.415,2.29C5.379,21.191.589,16.785,1.248,10.386c.4-3.861,1.8-7.322,5.9-8.64C11.1.472,14.926.92,17.983,3.976c2.23,2.236,3.148,5.141,3.294,8.764.146,2.074-.95,3.888-3.154,5.141" transform="translate(0 0)" fill="#9d1c30"/>
      <path id="Path_1066" data-name="Path 1066" d="M20.811,15.284a.81.81,0,0,1-.205.637.819.819,0,0,1-.6.27h-.108a.6.6,0,0,1-.432-.178.621.621,0,0,1-.184-.443c.005-.778-.011-1.539-.032-2.273A27.6,27.6,0,0,1,19.6,7.006l.038-.184.184-.027a.89.89,0,0,1,.826.2c.394.389.275,1.129.162,1.847a4.927,4.927,0,0,0-.086.7l-.011.545a43.969,43.969,0,0,0,.1,5.195" transform="translate(-8.839 -3.116)" fill="#9d1c30"/>
      <path id="Path_1067" data-name="Path 1067" d="M20.921,28.946a1.1,1.1,0,0,1-.192.781,1.028,1.028,0,0,1-.657.148c-.469,0-.949-.212-.949-.725a1.3,1.3,0,0,1,.308-.928.93.93,0,0,1,.641-.205.892.892,0,0,1,.849.929" transform="translate(-8.797 -12.888)" fill="#9d1c30"/>
    </g>
  </g>
</svg>
